<?xml version="1.0" encoding="UTF-8" standalone="no"?>
<svg
   viewBox="0 0 1500 400"
   version="1.1"
   id="svg1"
   sodipodi:docname="icon.svg"
   width="1500"
   height="400"
   inkscape:version="1.4 (e7c3feb100, 2024-10-09)"
   xml:space="preserve"
   xmlns:inkscape="http://www.inkscape.org/namespaces/inkscape"
   xmlns:sodipodi="http://sodipodi.sourceforge.net/DTD/sodipodi-0.dtd"
   xmlns="http://www.w3.org/2000/svg"
   xmlns:svg="http://www.w3.org/2000/svg"><defs
     id="defs1" /><sodipodi:namedview
     id="namedview1"
     pagecolor="#ffffff"
     bordercolor="#000000"
     borderopacity="0.25"
     inkscape:showpageshadow="2"
     inkscape:pageopacity="0.0"
     inkscape:pagecheckerboard="0"
     inkscape:deskcolor="#d1d1d1"
     inkscape:zoom="0.23437058"
     inkscape:cx="1241.6234"
     inkscape:cy="398.94086"
     inkscape:window-width="1536"
     inkscape:window-height="792"
     inkscape:window-x="0"
     inkscape:window-y="0"
     inkscape:window-maximized="1"
     inkscape:current-layer="svg1"
     showguides="true"><sodipodi:guide
       position="762.68106,15.992754"
       orientation="1,0"
       id="guide3"
       inkscape:locked="false" /><sodipodi:guide
       position="1230.9566,-436.28245"
       orientation="0,-1"
       id="guide4"
       inkscape:locked="false" /></sodipodi:namedview><!--!Font Awesome Free 6.5.2 by @fontawesome - https://fontawesome.com License - https://fontawesome.com/license/free Copyright 2024 Fonticons, Inc.--><g
     id="g4"
     inkscape:export-filename="g4.png"
     inkscape:export-xdpi="96"
     inkscape:export-ydpi="96"><rect
       style="fill:none;fill-opacity:1;stroke:none;stroke-width:1.041;stroke-dasharray:none;stroke-opacity:1"
       id="rect14"
       width="800"
       height="800"
       x="362.74075"
       y="437.05167" /><path
       id="path12-5"
       style="fill:#009bff;fill-opacity:1;stroke:none;stroke-width:3.58635;stroke-dasharray:none;stroke-opacity:1"
       d="m 761.43385,674.23181 -250.86286,94.23689 112.02999,42.50469 3.41788,-15.29224 c 90.31908,-27.621 181.44956,-28.17624 270.64696,0.28533 l 3.25884,15.81075 113.04514,-43.11465 z m 5.86419,109.1436 c -42.8891,-0.71763 -88.01315,5.05883 -136.25801,19.90614 l -18.92797,89.17434 c 49.77416,-0.82214 99.54764,0.39514 149.32179,26.07745 34.38973,-19.0153 84.05038,-28.10366 150.16485,-26.49791 L 890.14585,802.44062 C 850.84129,791.30538 810.18714,784.09311 767.29804,783.37541 Z m 197.57732,8.05134 -8.26258,3.21745 0.54025,49.51033 c -7.16623,2.49179 -5.76512,10.33957 -0.15464,13.25547 l -10.90715,92.39187 8.79192,-0.52282 0.79079,-18.95633 3.59208,19.14154 16.25732,0.67523 -8.46957,-92.65761 c 6.03767,-3.64229 6.19461,-10.80314 -1.16327,-13.54956 z" /><path
       style="font-weight:500;font-size:384.182px;font-family:Ubuntu;-inkscape-font-specification:'Ubuntu Medium';fill:#009bff;fill-opacity:1;stroke:none;stroke-width:3.58635;stroke-dasharray:none;stroke-opacity:1"
       d="m 632.463,922.31907 q 16.44796,0 25.16211,5.99098 8.82306,5.99106 8.82306,18.73548 0,6.64449 -2.39637,11.43721 -2.28747,4.68391 -6.75347,7.73388 -4.46601,2.94094 -10.89269,4.35711 -6.42668,1.41604 -14.70511,1.41604 h -6.8624 v 26.57813 h -13.72477 v -74.39706 q 4.79277,-1.08925 10.56589,-1.41603 5.88206,-0.43574 10.78375,-0.43574 z m 0.98035,11.87301 q -5.22849,0 -8.60522,0.32686 v 25.70669 h 6.64454 q 9.91234,0 15.24974,-2.72325 5.33743,-2.83199 5.33743,-10.56573 0,-3.70354 -1.41605,-6.20889 -1.41607,-2.50534 -3.92138,-3.9213 -2.5053,-1.41604 -5.99097,-1.9608 -3.37672,-0.65358 -7.29809,-0.65358 z m 63.06851,55.11712 q 6.09991,0 9.25879,-0.6536 v -14.59629 q -1.08926,-0.32679 -3.15888,-0.65344 -2.06962,-0.32686 -4.57493,-0.32686 -2.17853,0 -4.46601,0.32686 -2.17853,0.32665 -4.03028,1.19813 -1.74284,0.87134 -2.8321,2.5054 -1.08926,1.5249 -1.08926,3.9213 0,4.6838 2.94102,6.5356 2.94101,1.7429 7.95165,1.7429 z m -1.08927,-49.12606 q 6.53562,0 11.00161,1.63386 4.46601,1.63395 7.08023,4.57489 2.72318,2.94116 3.81245,7.18925 1.19821,4.13921 1.19821,9.14991 v 34.52965 q -3.04996,0.6537 -9.25878,1.5252 -6.09992,0.9802 -13.83372,0.9802 -5.11956,0 -9.36771,-0.9802 -4.24814,-0.9805 -7.29809,-3.159 -2.94102,-2.1786 -4.68385,-5.6641 -1.63389,-3.4858 -1.63389,-8.6053 0,-4.9018 1.85175,-8.27849 1.96068,-3.37669 5.2285,-5.44636 3.26778,-2.17856 7.51593,-3.0499 4.35707,-0.98043 9.04092,-0.98043 2.17855,0 4.57493,0.32685 2.39638,0.21791 5.11957,0.87134 v -2.17855 q 0,-2.28745 -0.54464,-4.35698 -0.54462,-2.06968 -1.96069,-3.59459 -1.30711,-1.63387 -3.59457,-2.50528 -2.17854,-0.87141 -5.55528,-0.87141 -4.57492,0 -8.38735,0.65343 -3.81244,0.65365 -6.20882,1.52514 l -1.63392,-10.67483 q 2.50533,-0.87141 7.2981,-1.74289 4.79277,-0.87141 10.23911,-0.87141 z m 53.48312,48.90816 q 5.22845,0 7.62484,-1.1982 2.39637,-1.3072 2.39637,-4.3572 0,-2.8319 -2.6142,-4.6838 -2.50533,-1.8518 -8.38736,-4.0302 -3.59462,-1.30715 -6.64453,-2.72325 -2.94104,-1.52492 -5.11957,-3.48564 -2.17851,-1.96072 -3.48564,-4.68384 -1.19823,-2.83212 -1.19823,-6.86246 0,-7.84261 5.77316,-12.30862 5.77308,-4.57495 15.68541,-4.57495 5.01065,0 9.58557,0.98029 4.57499,0.87148 6.86243,1.7429 l -2.3964,10.67481 q -2.17854,-0.98036 -5.5553,-1.74289 -3.37669,-0.87141 -7.84266,-0.87141 -4.03038,0 -6.53563,1.4161 -2.50532,1.30708 -2.50532,4.13922 0,1.41603 0.43572,2.50534 0.5446,1.08925 1.74282,2.06955 1.19817,0.87147 3.15882,1.85176 1.96073,0.87148 4.79278,1.8517 4.68389,1.7429 7.9517,3.48571 3.2678,1.63387 5.3374,3.81243 2.17857,2.06961 3.15887,4.79275 0.98036,2.7232 0.98036,6.5357 0,8.1695 -6.09995,12.4176 -5.99092,4.1393 -17.21039,4.1393 -7.51595,0 -12.0909,-1.3072 -4.5749,-1.1981 -6.42667,-1.9606 l 2.28748,-11.0017 q 2.94104,1.1982 6.97131,2.2874 4.13922,1.0894 9.36771,1.0894 z m 49.77965,0 q 5.22846,0 7.62485,-1.1982 2.39639,-1.3072 2.39639,-4.3572 0,-2.8319 -2.61427,-4.6838 -2.50527,-1.8518 -8.38731,-4.0302 -3.59467,-1.30715 -6.64458,-2.72325 -2.941,-1.52492 -5.11956,-3.48564 -2.17848,-1.96072 -3.48563,-4.68384 -1.19817,-2.83212 -1.19817,-6.86246 0,-7.84261 5.77311,-12.30862 5.77311,-4.57495 15.68544,-4.57495 5.01064,0 9.58557,0.98029 4.57487,0.87148 6.86238,1.7429 l -2.39644,10.67481 q -2.1785,-0.98036 -5.55527,-1.74289 -3.37669,-0.87141 -7.84273,-0.87141 -4.03025,0 -6.53562,1.4161 -2.50528,1.30708 -2.50528,4.13922 0,1.41603 0.43574,2.50534 0.5446,1.08925 1.74282,2.06955 1.19822,0.87147 3.15888,1.85176 1.96069,0.87148 4.79278,1.8517 4.6839,1.7429 7.95163,3.48571 3.26776,1.63387 5.33746,3.81243 2.17847,2.06961 3.15888,4.79275 0.9803,2.7232 0.9803,6.5357 0,8.1695 -6.09986,12.4176 -5.99096,4.1393 -17.21053,4.1393 -7.5159,0 -12.09078,-1.3072 -4.57497,-1.1981 -6.42666,-1.9606 l 2.2874,-11.0017 q 2.94099,1.1982 6.97135,2.2874 4.1392,1.0894 9.36771,1.0894 z m 32.35128,-18.73547 q 0,-7.5159 2.17859,-13.1801 2.28745,-5.66426 5.99095,-9.36781 3.70351,-3.81235 8.49632,-5.66413 4.79272,-1.96065 9.80334,-1.96065 11.76414,0 18.29975,7.29814 6.64449,7.29799 6.64449,21.78537 0,1.08918 -0.10889,2.50521 0,1.30715 -0.10888,2.3964 h -37.5798 q 0.54467,6.86244 4.79281,10.67484 4.35698,3.7035 12.52652,3.7035 4.79279,0 8.71417,-0.8714 4.03033,-0.8714 6.31777,-1.8517 l 1.74282,10.7838 q -1.08925,0.5446 -3.04997,1.1981 -1.85177,0.5447 -4.35705,0.9805 -2.39639,0.5445 -5.22846,0.8712 -2.83212,0.3269 -5.77315,0.3269 -7.51589,0 -13.07128,-2.1786 -5.55513,-2.2873 -9.1498,-6.2088 -3.59461,-4.0303 -5.33743,-9.3677 -1.74285,-5.4463 -1.74285,-11.87307 z m 38.23334,-5.8821 q 0,-2.72304 -0.76246,-5.11958 -0.76252,-2.5052 -2.28744,-4.24809 -1.4161,-1.85178 -3.59466,-2.83207 -2.06954,-1.08917 -5.01062,-1.08917 -3.04991,0 -5.33741,1.19812 -2.28744,1.08933 -3.92132,2.94109 -1.52498,1.8517 -2.39639,4.24802 -0.87151,2.39647 -1.19822,4.90168 z m 40.41177,34.09417 h -13.18017 v -56.9688 h 13.18017 z m 1.41603,-73.63454 q 0,3.70348 -2.39632,5.88203 -2.39647,2.1785 -5.6642,2.1785 -3.37683,0 -5.77315,-2.1785 -2.3964,-2.17855 -2.3964,-5.88203 0,-3.81242 2.3964,-5.99098 2.39632,-2.17856 5.77315,-2.17856 3.26773,0 5.6642,2.17856 2.39632,2.17856 2.39632,5.99098 z"
       id="text3-5-6-9"
       aria-label="Passei" /></g><g
     id="g3"><path
       id="path12-5-5"
       style="fill:#009bff;fill-opacity:1;stroke:none;stroke-width:3.86272;stroke-dasharray:none;stroke-opacity:1"
       d="M 296.87134,54.880608 26.676125,156.37975 l 120.663415,45.78022 3.68127,-16.47074 c 97.27938,-29.74958 195.43267,-30.34758 291.50395,0.30735 l 3.50997,17.02916 121.75671,-46.43716 z m 6.3161,117.554612 c -46.19428,-0.77299 -94.79574,5.44863 -146.7585,21.44012 l -20.38664,96.04645 c 53.60993,-0.88547 107.21913,0.42557 160.82904,28.08706 37.03993,-20.48071 90.5276,-30.26938 161.73708,-28.53989 l -23.10609,-96.49929 c -42.3335,-11.99341 -86.1206,-19.76146 -132.31489,-20.53445 z m 212.80332,8.67176 -8.89932,3.46543 0.58188,53.32578 c -7.71848,2.68379 -6.2094,11.13635 -0.16656,14.27699 l -11.74769,99.51186 9.46946,-0.5631 0.85173,-20.41714 3.8689,20.61661 17.51017,0.72727 -9.12228,-99.79809 c 6.50297,-3.92302 6.672,-11.63569 -1.25291,-14.59373 z" /><path
       style="font-weight:300;font-size:315.832px;font-family:Ubuntu;-inkscape-font-specification:'Ubuntu Light';text-align:center;letter-spacing:0px;word-spacing:0px;text-anchor:middle;fill:#009bff;stroke-width:38.8895"
       d="M 618.54838,320.08804 V 94.09402 q 11.28311,-2.986718 26.88036,-4.314129 15.59723,-1.327437 30.19891,-1.327437 48.11915,0 72.01278,18.252086 24.22551,18.2521 24.22551,52.76515 0,25.55291 -11.61497,41.482 -11.28311,15.59725 -33.84932,22.89809 -22.23437,6.96898 -54.75626,6.96898 h -31.8582 v 89.26928 z m 21.23881,-107.85323 h 29.86703 q 23.89365,0 41.8139,-3.98227 18.25207,-4.31414 28.20778,-15.59725 10.28753,-11.61496 10.28753,-33.51747 0,-19.57951 -9.95569,-30.86261 -9.62383,-11.28312 -26.21664,-16.26095 -16.59279,-4.97786 -37.49972,-4.97786 -10.61943,0 -20.57509,0.66372 -9.62384,0.66371 -15.9291,1.65928 z m 222.78587,110.83995 q -19.57951,0 -34.1812,-5.3097 -14.60166,-5.64155 -22.56622,-17.25652 -7.96454,-11.94681 -7.96454,-30.86263 0,-17.92022 8.62826,-29.53517 8.62827,-11.61497 24.55735,-16.92468 16.26096,-5.64155 37.8316,-5.64155 9.62384,0 20.24321,1.65928 10.61942,1.65928 14.93353,3.65041 v -10.95126 q 0,-14.26979 -3.65039,-25.22107 -3.31858,-11.28308 -12.94239,-17.58837 -9.29198,-6.30526 -26.88035,-6.30526 -15.92909,0 -26.21666,2.65486 -9.95569,2.32298 -15.26538,4.31413 l -2.65484,-17.58838 q 6.96898,-2.98669 18.58395,-4.97785 11.61496,-2.32301 27.21221,-2.32301 22.56619,0 35.84045,7.96455 13.60611,7.63271 19.57952,21.90252 6.30525,13.93798 6.30525,32.85376 v 107.85325 q -8.62824,2.32299 -25.5529,4.97783 -16.59281,2.65486 -35.84046,2.65486 z m 2.98671,-17.58837 q 10.95122,0 20.90689,-0.99556 9.95572,-0.99558 17.58839,-2.65487 v -62.05708 q -4.97783,-1.99116 -13.60609,-3.65043 -8.62825,-1.65927 -20.90692,-1.65927 -13.60613,0 -25.22109,2.98669 -11.61497,2.9867 -18.9158,10.6194 -6.96895,7.6327 -6.96895,21.57064 0,19.24768 12.27865,27.54408 12.2787,8.2964 34.84492,8.2964 z m 148.33993,17.92022 q -18.58395,0 -31.52628,-3.31857 -12.94246,-3.31854 -18.58395,-6.30524 l 4.97777,-17.92026 q 6.30524,2.32302 17.58839,5.97342 11.28313,3.65043 28.87147,3.65043 19.2476,0 30.8626,-6.63712 11.615,-6.63713 11.615,-21.23879 0,-9.29199 -3.9823,-14.93354 -3.9823,-5.97341 -13.2743,-10.95125 -9.2919,-5.30972 -25.8847,-11.61495 -14.60173,-5.64156 -25.22104,-11.61497 -10.61942,-6.30527 -16.59279,-15.26538 -5.64162,-8.96013 -5.64162,-22.23437 0,-13.93795 6.96908,-24.22549 6.96894,-10.61939 19.91128,-16.26096 13.27429,-5.64158 30.86269,-5.64158 15.5971,0 27.5441,2.65487 11.9467,2.65485 17.9201,5.64157 l -4.646,17.58836 q -5.6416,-2.65485 -15.5972,-5.30969 -9.9557,-2.98674 -25.5529,-2.98674 -15.5972,0 -26.21661,6.63714 -10.61943,6.63711 -10.61943,19.91136 0,8.96012 3.65036,14.93354 3.98233,5.64155 12.61058,10.28755 8.9601,4.64599 23.2299,10.28752 15.9292,6.30529 27.2122,12.9424 11.615,6.30526 17.5884,15.59725 6.3054,8.96011 6.3054,23.22994 0,15.26536 -7.6329,25.88476 -7.6326,10.6194 -22.2343,15.92911 -14.2699,5.30968 -34.513,5.30968 z m 141.3709,0 q -18.5839,0 -31.5264,-3.31857 -12.9424,-3.31854 -18.5839,-6.30524 l 4.9779,-17.92026 q 6.3052,2.32302 17.5884,5.97342 11.283,3.65043 28.8715,3.65043 19.2476,0 30.8624,-6.63712 11.6151,-6.63713 11.6151,-21.23879 0,-9.29199 -3.9821,-14.93354 -3.9825,-5.97341 -13.2745,-10.95125 -9.292,-5.30972 -25.8848,-11.61495 -14.6016,-5.64156 -25.2209,-11.61497 -10.6194,-6.30527 -16.5929,-15.26538 -5.6415,-8.96013 -5.6415,-22.23437 0,-13.93795 6.9689,-24.22549 6.9691,-10.61939 19.9116,-16.26096 13.2741,-5.64158 30.8624,-5.64158 15.5972,0 27.5441,2.65487 11.9468,2.65485 17.9203,5.64157 l -4.6459,17.58836 q -5.6417,-2.65485 -15.5972,-5.30969 -9.9558,-2.98674 -25.5531,-2.98674 -15.5972,0 -26.2166,6.63714 -10.6192,6.63711 -10.6192,19.91136 0,8.96012 3.6503,14.93354 3.9822,5.64155 12.6104,10.28755 8.9601,4.64599 23.23,10.28752 15.929,6.30529 27.2123,12.9424 11.6148,6.30526 17.5884,15.59725 6.3052,8.96011 6.3052,23.22994 0,15.26536 -7.6325,25.88476 -7.633,10.6194 -22.2347,15.92911 -14.2698,5.30968 -34.513,5.30968 z m 180.8619,0 q -29.2033,0 -48.1193,-10.95126 -18.5841,-11.2831 -27.544,-31.52632 -8.6283,-20.24323 -8.6283,-47.78727 0,-27.21222 9.9556,-47.12358 10.2876,-19.91138 27.2123,-30.53079 16.9248,-10.6194 37.8317,-10.6194 21.9023,0 37.1679,9.62386 15.2653,9.29197 23.2298,27.54405 8.2965,18.2521 8.2965,44.80057 0,2.32299 -0.332,5.64157 0,2.9867 -0.3318,5.9734 h -121.7911 q 0.9955,32.52192 16.261,49.44656 15.5972,16.92468 47.7872,16.92468 15.2652,0 26.2165,-2.98672 10.9513,-2.98669 16.2613,-5.97342 l 3.65,17.25654 q -5.3096,3.31855 -18.584,6.96896 -12.9422,3.31857 -28.5393,3.31857 z m -62.7208,-101.87982 h 101.216 q 0,-18.9158 -5.6416,-31.8582 -5.6416,-13.27424 -16.2608,-19.91136 -10.6196,-6.96899 -25.553,-6.96899 -16.2613,0 -28.2077,8.29641 -11.6152,8.2964 -17.9202,21.90251 -6.3053,13.27425 -7.6327,28.53963 z m 170.574,98.56125 V 148.85027 h 20.2432 V 320.08804 Z M 1454.273,109.3594 q -6.3049,0 -10.951,-4.31411 -4.3141,-4.31416 -4.3141,-11.614974 0,-6.968991 4.3141,-11.283135 4.6461,-4.314118 10.951,-4.314118 6.3055,0 10.6196,4.314118 4.6461,4.314144 4.6461,11.283135 0,7.300814 -4.6461,11.614974 -4.3141,4.31411 -10.6196,4.31411 z"
       id="text1"
       aria-label="Passei" /></g></svg>
