<?xml version="1.0" encoding="UTF-8" standalone="no"?>
<svg
   viewBox="0 0 1500 400"
   version="1.1"
   id="svg1"
   sodipodi:docname="icon.svg"
   width="1500"
   height="400"
   inkscape:version="1.4 (e7c3feb100, 2024-10-09)"
   xml:space="preserve"
   xmlns:inkscape="http://www.inkscape.org/namespaces/inkscape"
   xmlns:sodipodi="http://sodipodi.sourceforge.net/DTD/sodipodi-0.dtd"
   xmlns="http://www.w3.org/2000/svg"
   xmlns:svg="http://www.w3.org/2000/svg"><defs
     id="defs1" /><sodipodi:namedview
     id="namedview1"
     pagecolor="#ffffff"
     bordercolor="#000000"
     borderopacity="0.25"
     inkscape:showpageshadow="2"
     inkscape:pageopacity="0.0"
     inkscape:pagecheckerboard="0"
     inkscape:deskcolor="#d1d1d1"
     inkscape:zoom="0.23437058"
     inkscape:cx="1241.6234"
     inkscape:cy="441.60833"
     inkscape:window-width="1536"
     inkscape:window-height="792"
     inkscape:window-x="0"
     inkscape:window-y="0"
     inkscape:window-maximized="1"
     inkscape:current-layer="svg1"
     showguides="true"><sodipodi:guide
       position="762.68106,15.992754"
       orientation="1,0"
       id="guide3"
       inkscape:locked="false" /><sodipodi:guide
       position="1230.9566,-436.28245"
       orientation="0,-1"
       id="guide4"
       inkscape:locked="false" /></sodipodi:namedview><!--!Font Awesome Free 6.5.2 by @fontawesome - https://fontawesome.com License - https://fontawesome.com/license/free Copyright 2024 Fonticons, Inc.--><g
     id="g2"
     inkscape:export-filename="g2.png"
     inkscape:export-xdpi="96"
     inkscape:export-ydpi="96"><rect
       style="fill:none;fill-opacity:1;stroke:none;stroke-width:1.041;stroke-dasharray:none;stroke-opacity:1"
       id="rect14"
       width="800"
       height="800"
       x="362.74075"
       y="437.05167" /><g
       id="g1"
       transform="matrix(1.1874419,0,0,1.1874419,-138.44846,-161.26615)"><path
         id="path12-5"
         style="fill:#009bff;fill-opacity:1;stroke:none;stroke-width:2.59988;stroke-dasharray:none;stroke-opacity:1"
         d="m 760.43128,720.23181 -181.86029,68.316 81.21492,30.81332 2.47776,-11.08594 c 65.47583,-20.02355 131.53988,-20.42606 196.20256,0.20684 l 2.36246,11.46184 81.95085,-31.2555 z m 4.25119,79.12246 c -31.09198,-0.52023 -63.80418,3.66734 -98.77876,14.43074 l -13.72162,64.64597 c 36.08322,-0.596 72.16596,0.28645 108.24919,18.90456 24.93046,-13.78493 60.93141,-20.37344 108.86038,-19.20937 l -15.55201,-64.95078 c -28.49341,-8.07237 -57.9652,-13.30083 -89.05718,-13.82112 z m 143.23152,5.83674 -5.98986,2.33245 0.39164,35.89197 c -5.19507,1.8064 -4.17936,7.49556 -0.11211,9.60941 l -7.90701,66.97848 6.37361,-0.37901 0.57327,-13.74218 2.60404,13.87644 11.78557,0.48951 -6.13993,-67.17113 c 4.37695,-2.64044 4.49072,-7.83162 -0.8433,-9.8226 z" /><path
         style="font-weight:500;font-size:384.182px;font-family:Ubuntu;-inkscape-font-specification:'Ubuntu Medium';fill:#009bff;fill-opacity:1;stroke:none;stroke-width:2.59988;stroke-dasharray:none;stroke-opacity:1"
         d="m 666.93527,900.07996 q 11.92377,0 18.241,4.3431 6.39618,4.34316 6.39618,13.58208 0,4.81686 -1.73722,8.29128 -1.65828,3.39555 -4.89585,5.6066 -3.23759,2.132 -7.89654,3.15864 -4.65895,1.02654 -10.66031,1.02654 h -4.97482 v 19.26753 h -9.94963 v -53.93335 q 3.47447,-0.78963 7.65963,-1.02653 4.26414,-0.31589 7.81756,-0.31589 z m 0.7107,8.60722 q -3.79033,0 -6.23826,0.23695 v 18.63578 h 4.81688 q 7.18584,0 11.05513,-1.97419 3.86932,-2.05302 3.86932,-7.6595 0,-2.68485 -1.02655,-4.50107 -1.02657,-1.81622 -2.84277,-2.8427 -1.81618,-1.02655 -4.34308,-1.42147 -2.44792,-0.4738 -5.29067,-0.4738 z m 45.72083,39.95655 q 4.42206,0 6.71206,-0.47382 v -10.58142 q -0.78965,-0.2369 -2.29,-0.47371 -1.50035,-0.23695 -3.31654,-0.23695 -1.5793,0 -3.23759,0.23695 -1.5793,0.23681 -2.92171,0.86857 -1.26345,0.63167 -2.0531,1.81627 -0.78964,1.10546 -0.78964,2.8427 0,3.39547 2.13206,4.73791 2.13205,1.2635 5.76446,1.2635 z m -0.78966,-35.6134 q 4.73793,0 7.9755,1.18444 3.23759,1.18452 5.13274,3.31653 1.97414,2.13216 2.76379,5.21176 0.86863,3.00068 0.86863,6.63313 v 25.0319 q -2.21104,0.47388 -6.71206,1.10567 -4.42206,0.71058 -10.0286,0.71058 -3.71137,0 -6.79101,-0.71058 -3.07965,-0.7108 -5.29068,-2.29008 -2.13205,-1.57935 -3.39551,-4.10613 -1.18446,-2.52699 -1.18446,-6.23832 0,-3.5535 1.3424,-6.0014 1.42137,-2.44789 3.79035,-3.94828 2.36894,-1.57932 5.44859,-2.21099 3.15861,-0.71075 6.55412,-0.71075 1.57931,0 3.31654,0.23694 1.73723,0.15798 3.71138,0.63168 v -1.57932 q 0,-1.65827 -0.39483,-3.15854 -0.39482,-1.5004 -1.42138,-2.60587 -0.94758,-1.18446 -2.60585,-1.81617 -1.57931,-0.63172 -4.02724,-0.63172 -3.31654,0 -6.08031,0.4737 -2.7638,0.47385 -4.50102,1.10563 l -1.18449,-7.73861 q 1.81621,-0.63171 5.29067,-1.26349 3.47447,-0.63171 7.42273,-0.63171 z m 38.772,35.45543 q 3.79032,0 5.52756,-0.86861 1.73722,-0.94764 1.73722,-3.15871 0,-2.05296 -1.89514,-3.39547 -1.81621,-1.34244 -6.08032,-2.92165 -2.60589,-0.94761 -4.81689,-1.97419 -2.13207,-1.10547 -3.71137,-2.52687 -1.57929,-1.42141 -2.52688,-3.39551 -0.86865,-2.05311 -0.86865,-4.97486 0,-5.68541 4.1852,-8.923 4.18513,-3.31656 11.37096,-3.31656 3.63242,0 6.94896,0.71065 3.31659,0.63177 4.97484,1.26349 l -1.73724,7.73859 q -1.57931,-0.7107 -4.02725,-1.26349 -2.4479,-0.63171 -5.68546,-0.63171 -2.92178,0 -4.73793,1.02658 -1.81621,0.94756 -1.81621,3.00068 0,1.02654 0.31588,1.81622 0.3948,0.78964 1.26343,1.5003 0.86861,0.63176 2.28995,1.34241 1.42141,0.63177 3.47448,1.34238 3.39553,1.26348 5.7645,2.52692 2.36896,1.18445 3.86929,2.76378 1.57933,1.50034 2.28999,3.47445 0.7107,1.97415 0.7107,4.73798 0,5.92239 -4.42209,9.00201 -4.34306,3.00074 -12.47649,3.00074 -5.44861,0 -8.76517,-0.94764 -3.31652,-0.86855 -4.65894,-1.42132 l 1.65829,-7.97556 q 2.13207,0.86862 5.05377,1.65823 3.00068,0.78974 6.79101,0.78974 z m 36.08722,0 q 3.79032,0 5.52755,-0.86861 1.73724,-0.94764 1.73724,-3.15871 0,-2.05296 -1.89519,-3.39547 -1.81616,-1.34244 -6.08029,-2.92165 -2.60591,-0.94761 -4.81691,-1.97419 -2.13205,-1.10547 -3.71137,-2.52687 -1.57926,-1.42141 -2.52687,-3.39551 -0.8686,-2.05311 -0.8686,-4.97486 0,-5.68541 4.18516,-8.923 4.18514,-3.31656 11.37098,-3.31656 3.63241,0 6.94896,0.71065 3.3165,0.63177 4.97481,1.26349 l -1.73728,7.73859 q -1.57928,-0.7107 -4.02723,-1.26349 -2.44789,-0.63171 -5.6855,-0.63171 -2.92169,0 -4.73793,1.02658 -1.81617,0.94756 -1.81617,3.00068 0,1.02654 0.31589,1.81622 0.3948,0.78964 1.26343,1.5003 0.86863,0.63176 2.29,1.34241 1.42138,0.63177 3.47447,1.34238 3.39554,1.26348 5.76445,2.52692 2.36892,1.18445 3.86933,2.76378 1.57926,1.50034 2.28999,3.47445 0.71066,1.97415 0.71066,4.73798 0,5.92239 -4.42203,9.00201 -4.34308,3.00074 -12.47658,3.00074 -5.44857,0 -8.76508,-0.94764 -3.31657,-0.86855 -4.65894,-1.42132 l 1.65823,-7.97556 q 2.13204,0.86862 5.05381,1.65823 3.00066,0.78974 6.79101,0.78974 z m 23.45271,-13.58207 q 0,-5.44856 1.57935,-9.55477 1.65826,-4.10624 4.34307,-6.79109 2.68482,-2.76372 6.15931,-4.10615 3.47444,-1.42135 7.10683,-1.42135 8.52829,0 13.2662,5.2907 4.81686,5.2906 4.81686,15.79307 0,0.78959 -0.0789,1.81613 0,0.9476 -0.079,1.73724 h -27.24306 q 0.39485,4.97485 3.47449,7.73861 3.15854,2.68481 9.08097,2.68481 3.47448,0 6.31724,-0.63171 2.92174,-0.63172 4.58,-1.34237 l 1.26344,7.8176 q -0.78965,0.3948 -2.21105,0.86855 -1.34242,0.39487 -3.15859,0.7108 -1.73724,0.39473 -3.79032,0.63157 -2.05311,0.23698 -4.18518,0.23698 -5.44856,0 -9.47588,-1.57935 -4.02713,-1.65815 -6.63305,-4.50101 -2.60587,-2.92172 -3.86931,-6.79101 -1.26346,-3.94823 -1.26346,-8.60725 z m 27.71685,-4.26416 q 0,-1.97404 -0.55274,-3.71139 -0.55279,-1.81611 -1.65826,-3.07961 -1.02659,-1.34242 -2.60591,-2.05307 -1.50029,-0.78958 -3.6324,-0.78958 -2.21099,0 -3.86929,0.86856 -1.65826,0.7897 -2.84271,2.13211 -1.10553,1.34237 -1.73724,3.07955 -0.63179,1.7373 -0.86864,3.55343 z m 29.29606,24.7162 h -9.55481 v -41.29891 h 9.55481 z m 1.02654,-53.38056 q 0,2.6848 -1.73719,4.26411 -1.73729,1.57928 -4.10619,1.57928 -2.448,0 -4.18519,-1.57928 -1.73724,-1.57931 -1.73724,-4.26411 0,-2.76378 1.73724,-4.3431 1.73719,-1.57933 4.18519,-1.57933 2.3689,0 4.10619,1.57933 1.73719,1.57932 1.73719,4.3431 z"
         id="text3-5-6-9"
         aria-label="Passei" /></g></g><g
     id="g3"><path
       id="path12-5-5"
       style="fill:#009bff;fill-opacity:1;stroke:none;stroke-width:3.86272;stroke-dasharray:none;stroke-opacity:1"
       d="M 296.87134,54.880608 26.676125,156.37975 l 120.663415,45.78022 3.68127,-16.47074 c 97.27938,-29.74958 195.43267,-30.34758 291.50395,0.30735 l 3.50997,17.02916 121.75671,-46.43716 z m 6.3161,117.554612 c -46.19428,-0.77299 -94.79574,5.44863 -146.7585,21.44012 l -20.38664,96.04645 c 53.60993,-0.88547 107.21913,0.42557 160.82904,28.08706 37.03993,-20.48071 90.5276,-30.26938 161.73708,-28.53989 l -23.10609,-96.49929 c -42.3335,-11.99341 -86.1206,-19.76146 -132.31489,-20.53445 z m 212.80332,8.67176 -8.89932,3.46543 0.58188,53.32578 c -7.71848,2.68379 -6.2094,11.13635 -0.16656,14.27699 l -11.74769,99.51186 9.46946,-0.5631 0.85173,-20.41714 3.8689,20.61661 17.51017,0.72727 -9.12228,-99.79809 c 6.50297,-3.92302 6.672,-11.63569 -1.25291,-14.59373 z" /><path
       style="font-weight:300;font-size:315.832px;font-family:Ubuntu;-inkscape-font-specification:'Ubuntu Light';text-align:center;letter-spacing:0px;word-spacing:0px;text-anchor:middle;fill:#009bff;stroke-width:38.8895"
       d="M 618.54838,320.08804 V 94.09402 q 11.28311,-2.986718 26.88036,-4.314129 15.59723,-1.327437 30.19891,-1.327437 48.11915,0 72.01278,18.252086 24.22551,18.2521 24.22551,52.76515 0,25.55291 -11.61497,41.482 -11.28311,15.59725 -33.84932,22.89809 -22.23437,6.96898 -54.75626,6.96898 h -31.8582 v 89.26928 z m 21.23881,-107.85323 h 29.86703 q 23.89365,0 41.8139,-3.98227 18.25207,-4.31414 28.20778,-15.59725 10.28753,-11.61496 10.28753,-33.51747 0,-19.57951 -9.95569,-30.86261 -9.62383,-11.28312 -26.21664,-16.26095 -16.59279,-4.97786 -37.49972,-4.97786 -10.61943,0 -20.57509,0.66372 -9.62384,0.66371 -15.9291,1.65928 z m 222.78587,110.83995 q -19.57951,0 -34.1812,-5.3097 -14.60166,-5.64155 -22.56622,-17.25652 -7.96454,-11.94681 -7.96454,-30.86263 0,-17.92022 8.62826,-29.53517 8.62827,-11.61497 24.55735,-16.92468 16.26096,-5.64155 37.8316,-5.64155 9.62384,0 20.24321,1.65928 10.61942,1.65928 14.93353,3.65041 v -10.95126 q 0,-14.26979 -3.65039,-25.22107 -3.31858,-11.28308 -12.94239,-17.58837 -9.29198,-6.30526 -26.88035,-6.30526 -15.92909,0 -26.21666,2.65486 -9.95569,2.32298 -15.26538,4.31413 l -2.65484,-17.58838 q 6.96898,-2.98669 18.58395,-4.97785 11.61496,-2.32301 27.21221,-2.32301 22.56619,0 35.84045,7.96455 13.60611,7.63271 19.57952,21.90252 6.30525,13.93798 6.30525,32.85376 v 107.85325 q -8.62824,2.32299 -25.5529,4.97783 -16.59281,2.65486 -35.84046,2.65486 z m 2.98671,-17.58837 q 10.95122,0 20.90689,-0.99556 9.95572,-0.99558 17.58839,-2.65487 v -62.05708 q -4.97783,-1.99116 -13.60609,-3.65043 -8.62825,-1.65927 -20.90692,-1.65927 -13.60613,0 -25.22109,2.98669 -11.61497,2.9867 -18.9158,10.6194 -6.96895,7.6327 -6.96895,21.57064 0,19.24768 12.27865,27.54408 12.2787,8.2964 34.84492,8.2964 z m 148.33993,17.92022 q -18.58395,0 -31.52628,-3.31857 -12.94246,-3.31854 -18.58395,-6.30524 l 4.97777,-17.92026 q 6.30524,2.32302 17.58839,5.97342 11.28313,3.65043 28.87147,3.65043 19.2476,0 30.8626,-6.63712 11.615,-6.63713 11.615,-21.23879 0,-9.29199 -3.9823,-14.93354 -3.9823,-5.97341 -13.2743,-10.95125 -9.2919,-5.30972 -25.8847,-11.61495 -14.60173,-5.64156 -25.22104,-11.61497 -10.61942,-6.30527 -16.59279,-15.26538 -5.64162,-8.96013 -5.64162,-22.23437 0,-13.93795 6.96908,-24.22549 6.96894,-10.61939 19.91128,-16.26096 13.27429,-5.64158 30.86269,-5.64158 15.5971,0 27.5441,2.65487 11.9467,2.65485 17.9201,5.64157 l -4.646,17.58836 q -5.6416,-2.65485 -15.5972,-5.30969 -9.9557,-2.98674 -25.5529,-2.98674 -15.5972,0 -26.21661,6.63714 -10.61943,6.63711 -10.61943,19.91136 0,8.96012 3.65036,14.93354 3.98233,5.64155 12.61058,10.28755 8.9601,4.64599 23.2299,10.28752 15.9292,6.30529 27.2122,12.9424 11.615,6.30526 17.5884,15.59725 6.3054,8.96011 6.3054,23.22994 0,15.26536 -7.6329,25.88476 -7.6326,10.6194 -22.2343,15.92911 -14.2699,5.30968 -34.513,5.30968 z m 141.3709,0 q -18.5839,0 -31.5264,-3.31857 -12.9424,-3.31854 -18.5839,-6.30524 l 4.9779,-17.92026 q 6.3052,2.32302 17.5884,5.97342 11.283,3.65043 28.8715,3.65043 19.2476,0 30.8624,-6.63712 11.6151,-6.63713 11.6151,-21.23879 0,-9.29199 -3.9821,-14.93354 -3.9825,-5.97341 -13.2745,-10.95125 -9.292,-5.30972 -25.8848,-11.61495 -14.6016,-5.64156 -25.2209,-11.61497 -10.6194,-6.30527 -16.5929,-15.26538 -5.6415,-8.96013 -5.6415,-22.23437 0,-13.93795 6.9689,-24.22549 6.9691,-10.61939 19.9116,-16.26096 13.2741,-5.64158 30.8624,-5.64158 15.5972,0 27.5441,2.65487 11.9468,2.65485 17.9203,5.64157 l -4.6459,17.58836 q -5.6417,-2.65485 -15.5972,-5.30969 -9.9558,-2.98674 -25.5531,-2.98674 -15.5972,0 -26.2166,6.63714 -10.6192,6.63711 -10.6192,19.91136 0,8.96012 3.6503,14.93354 3.9822,5.64155 12.6104,10.28755 8.9601,4.64599 23.23,10.28752 15.929,6.30529 27.2123,12.9424 11.6148,6.30526 17.5884,15.59725 6.3052,8.96011 6.3052,23.22994 0,15.26536 -7.6325,25.88476 -7.633,10.6194 -22.2347,15.92911 -14.2698,5.30968 -34.513,5.30968 z m 180.8619,0 q -29.2033,0 -48.1193,-10.95126 -18.5841,-11.2831 -27.544,-31.52632 -8.6283,-20.24323 -8.6283,-47.78727 0,-27.21222 9.9556,-47.12358 10.2876,-19.91138 27.2123,-30.53079 16.9248,-10.6194 37.8317,-10.6194 21.9023,0 37.1679,9.62386 15.2653,9.29197 23.2298,27.54405 8.2965,18.2521 8.2965,44.80057 0,2.32299 -0.332,5.64157 0,2.9867 -0.3318,5.9734 h -121.7911 q 0.9955,32.52192 16.261,49.44656 15.5972,16.92468 47.7872,16.92468 15.2652,0 26.2165,-2.98672 10.9513,-2.98669 16.2613,-5.97342 l 3.65,17.25654 q -5.3096,3.31855 -18.584,6.96896 -12.9422,3.31857 -28.5393,3.31857 z m -62.7208,-101.87982 h 101.216 q 0,-18.9158 -5.6416,-31.8582 -5.6416,-13.27424 -16.2608,-19.91136 -10.6196,-6.96899 -25.553,-6.96899 -16.2613,0 -28.2077,8.29641 -11.6152,8.2964 -17.9202,21.90251 -6.3053,13.27425 -7.6327,28.53963 z m 170.574,98.56125 V 148.85027 h 20.2432 V 320.08804 Z M 1454.273,109.3594 q -6.3049,0 -10.951,-4.31411 -4.3141,-4.31416 -4.3141,-11.614974 0,-6.968991 4.3141,-11.283135 4.6461,-4.314118 10.951,-4.314118 6.3055,0 10.6196,4.314118 4.6461,4.314144 4.6461,11.283135 0,7.300814 -4.6461,11.614974 -4.3141,4.31411 -10.6196,4.31411 z"
       id="text1"
       aria-label="Passei" /></g></svg>
