<?xml version="1.0" encoding="UTF-8" standalone="no"?>
<svg
   viewBox="0 0 1500 412"
   version="1.1"
   id="svg1"
   sodipodi:docname="icon.svg"
   width="1500"
   height="412"
   inkscape:version="1.4 (e7c3feb100, 2024-10-09)"
   xml:space="preserve"
   xmlns:inkscape="http://www.inkscape.org/namespaces/inkscape"
   xmlns:sodipodi="http://sodipodi.sourceforge.net/DTD/sodipodi-0.dtd"
   xmlns="http://www.w3.org/2000/svg"
   xmlns:svg="http://www.w3.org/2000/svg"><defs
     id="defs1" /><sodipodi:namedview
     id="namedview1"
     pagecolor="#ffffff"
     bordercolor="#000000"
     borderopacity="0.25"
     inkscape:showpageshadow="2"
     inkscape:pageopacity="0.0"
     inkscape:pagecheckerboard="0"
     inkscape:deskcolor="#d1d1d1"
     inkscape:zoom="0.082862515"
     inkscape:cx="-482.72732"
     inkscape:cy="2190.3752"
     inkscape:window-width="1536"
     inkscape:window-height="792"
     inkscape:window-x="0"
     inkscape:window-y="0"
     inkscape:window-maximized="1"
     inkscape:current-layer="svg1"
     showguides="true"><sodipodi:guide
       position="590.4335,203.82384"
       orientation="0,-1"
       id="guide2"
       inkscape:locked="false" /></sodipodi:namedview><!--!Font Awesome Free 6.5.2 by @fontawesome - https://fontawesome.com License - https://fontawesome.com/license/free Copyright 2024 Fonticons, Inc.--><path
     style="font-weight:500;font-size:384.182px;font-family:Ubuntu;-inkscape-font-specification:'Ubuntu Medium';fill:#000000;fill-opacity:1;stroke:none;stroke-width:0.774689;stroke-opacity:1"
     d="m 696.01465,99.361175 q 44.94084,0 68.75053,16.369165 24.10732,16.36917 24.10732,51.19084 0,18.15492 -6.54767,31.25024 -6.25005,12.7977 -18.45251,21.13111 -12.20249,8.03577 -29.76214,11.90483 -17.55965,3.86909 -40.17883,3.86909 h -18.75018 v 72.61958 h -37.50025 v -203.2753 q 13.09532,-2.97622 28.86925,-3.86907 16.07155,-1.190485 29.46448,-1.190485 z m 2.67862,32.440715 q -14.28583,0 -23.5121,0.89286 v 70.23861 h 18.15492 q 27.08353,0 41.66695,-7.44054 14.58345,-7.73813 14.58345,-28.86926 0,-10.11912 -3.86908,-16.9644 -3.86907,-6.84528 -10.71437,-10.71436 -6.84527,-3.86907 -16.36914,-5.35718 -9.22627,-1.78573 -19.94063,-1.78573 z m 172.32237,150.59632 q 16.6668,0 25.29782,-1.78571 v -39.88126 q -2.97621,-0.89284 -8.63102,-1.78572 -5.65481,-0.89286 -12.50009,-0.89286 -5.95243,0 -12.20248,0.89286 -5.95243,0.89288 -11.012,3.27384 -4.76193,2.38099 -7.73814,6.84529 -2.9762,4.16671 -2.9762,10.71436 0,12.79772 8.03577,17.85729 8.03577,4.76191 21.72634,4.76191 z m -2.97621,-134.22715 q 17.8573,0 30.05975,4.46431 12.20248,4.46432 19.34536,12.50007 7.44053,8.03581 10.41673,19.64304 3.27388,11.30958 3.27388,25.00016 v 94.34593 q -8.33341,1.78574 -25.2978,4.16672 -16.6668,2.67856 -37.79792,2.67856 -13.9882,0 -25.59543,-2.67856 -11.60721,-2.67861 -19.94062,-8.63105 -8.03577,-5.95241 -12.7977,-15.47628 -4.46432,-9.5239 -4.46432,-23.5121 0,-13.39294 5.05957,-22.6192 5.35716,-9.22626 14.28582,-14.88107 8.92863,-5.95241 20.53585,-8.33337 11.90484,-2.67862 24.70256,-2.67862 5.95244,0 12.5001,0.89288 6.54763,0.59522 13.9882,2.38096 v -5.95242 q 0,-6.25004 -1.48812,-11.90484 -1.48809,-5.65481 -5.35719,-9.82149 -3.57142,-4.46433 -9.82148,-6.84531 -5.95244,-2.38097 -15.17868,-2.38097 -12.50012,0 -22.91684,1.78574 -10.41674,1.78573 -16.9644,4.16669 l -4.46434,-29.16687 q 6.8453,-2.38098 19.94063,-4.76195 13.09532,-2.38096 27.97639,-2.38096 z m 146.13217,133.63192 q 14.2857,0 20.8334,-3.27382 6.5476,-3.57149 6.5476,-11.90486 0,-7.73815 -7.1428,-12.7977 -6.8453,-5.05959 -22.9168,-11.01199 -9.8216,-3.57148 -18.1549,-7.44052 -8.03577,-4.16673 -13.98824,-9.5239 -5.95235,-5.35718 -9.52381,-12.79771 -3.27393,-7.73815 -3.27393,-18.75013 0,-21.42872 15.77403,-33.63123 15.77385,-12.50006 42.85735,-12.50006 13.6906,0 26.1907,2.67859 12.5002,2.38095 18.7502,4.76192 l -6.5477,29.16691 q -5.9524,-2.6786 -15.1787,-4.76196 -9.2262,-2.38097 -21.4286,-2.38097 -11.0122,0 -17.8573,3.86907 -6.8453,3.57148 -6.8453,11.30963 0,3.86906 1.1905,6.84528 1.488,2.97622 4.7619,5.6548 3.2738,2.38097 8.6309,5.05955 5.3573,2.38099 13.0953,5.05956 12.7978,4.76194 21.7265,9.52388 8.9286,4.46435 14.5834,10.41677 5.9525,5.65479 8.631,13.09532 2.6786,7.44051 2.6786,17.85726 0,22.32161 -16.6669,33.92882 -16.369,11.30962 -47.024,11.30962 -20.5359,0 -33.03605,-3.57146 -12.49999,-3.27383 -17.55964,-5.35718 l 6.2501,-30.05974 q 8.03584,3.27382 19.04774,6.25005 11.30965,2.9762 25.59545,2.9762 z m 136.0132,0 q 14.2857,0 20.8334,-3.27382 6.5477,-3.57149 6.5477,-11.90486 0,-7.73815 -7.143,-12.7977 -6.8452,-5.05959 -22.9167,-11.01199 -9.8217,-3.57148 -18.155,-7.44052 -8.0357,-4.16673 -13.9882,-9.5239 -5.9523,-5.35718 -9.5238,-12.79771 -3.2738,-7.73815 -3.2738,-18.75013 0,-21.42872 15.7739,-33.63123 15.7739,-12.50006 42.8574,-12.50006 13.6906,0 26.1907,2.67859 12.4999,2.38095 18.7501,4.76192 l -6.5478,29.16691 q -5.9523,-2.6786 -15.1787,-4.76196 -9.2261,-2.38097 -21.4287,-2.38097 -11.0119,0 -17.8573,3.86907 -6.8452,3.57148 -6.8452,11.30963 0,3.86906 1.1906,6.84528 1.488,2.97622 4.7619,5.6548 3.2739,2.38097 8.631,5.05955 5.3572,2.38099 13.0954,5.05956 12.7978,4.76194 21.7262,9.52388 8.9285,4.46435 14.5836,10.41677 5.9522,5.65479 8.631,13.09532 2.6785,7.44051 2.6785,17.85726 0,22.32161 -16.6667,33.92882 -16.3691,11.30962 -47.0244,11.30962 -20.5357,0 -33.0357,-3.57146 -12.5002,-3.27383 -17.5596,-5.35718 l 6.2499,-30.05974 q 8.0357,3.27382 19.0478,6.25005 11.3096,2.9762 25.5955,2.9762 z m 88.3935,-51.19087 q 0,-20.53584 5.9526,-36.01217 6.25,-15.47627 16.3691,-25.59541 10.1191,-10.41673 23.2145,-15.47629 13.0953,-5.35718 26.7858,-5.35718 32.1432,0 50.0004,19.94062 18.1548,19.94062 18.1548,59.52423 0,2.9762 -0.2975,6.8453 0,3.57145 -0.2975,6.54767 h -102.6794 q 1.4882,18.75013 13.0955,29.16688 11.9046,10.11913 34.2262,10.11913 13.0954,0 23.8097,-2.38098 11.0121,-2.38098 17.2621,-5.05957 l 4.7619,29.46451 q -2.9761,1.4881 -8.3333,3.27383 -5.0597,1.48811 -11.9049,2.67861 -6.5476,1.48808 -14.2857,2.38094 -7.7383,0.89288 -15.774,0.89288 -20.5358,0 -35.7147,-5.95243 -15.1784,-6.25004 -25.0001,-16.9644 -9.8216,-11.01198 -14.5835,-25.59543 -4.762,-14.88107 -4.762,-32.44074 z m 104.4652,-16.07153 q 0,-7.44052 -2.0833,-13.98819 -2.0834,-6.84529 -6.2501,-11.60723 -3.8692,-5.05954 -9.8216,-7.73816 -5.6546,-2.97622 -13.6906,-2.97622 -8.3332,0 -14.5833,3.27384 -6.25,2.97622 -10.7144,8.03579 -4.1666,5.05953 -6.5476,11.60721 -2.3812,6.54768 -3.2739,13.39296 z m 110.4172,93.15545 h -36.0122 V 152.04014 h 36.0122 z m 3.8691,-201.19194 q 0,10.1191 -6.5476,16.07155 -6.5479,5.95242 -15.4763,5.95242 -9.2264,0 -15.774,-5.95242 -6.5476,-5.95245 -6.5476,-16.07155 0,-10.416755 6.5476,-16.369177 6.5476,-5.952432 15.774,-5.952432 8.9284,0 15.4763,5.952432 6.5476,5.952422 6.5476,16.369177 z"
     id="text3-5-6"
     aria-label="Passei" /><path
     id="path12"
     style="fill:#000000;fill-opacity:1;stroke:none;stroke-width:1.16541;stroke-dasharray:none;stroke-opacity:0.996078"
     d="m 299.0379,51.587654 -262.127035,98.468336 117.060345,44.4132 3.57135,-15.97892 c 94.37461,-28.86124 189.59696,-29.44139 282.79948,0.29818 l 3.40518,16.52065 118.12106,-45.05052 z m 6.12752,114.044376 c -44.81492,-0.74991 -91.96513,5.28593 -142.37623,20.79991 l -19.77788,93.17846 c 52.00907,-0.85903 104.01752,0.41286 156.02659,27.24837 35.93391,-19.86914 87.82445,-29.36553 156.90748,-27.68768 L 433.52937,185.55332 C 392.45995,173.91803 349.98034,166.38194 305.16542,165.63203 Z m 206.44894,8.41282 -8.63363,3.36195 0.5645,51.73345 c -7.48801,2.60365 -6.02398,10.80381 -0.1616,13.85067 l -11.39693,96.54041 9.18673,-0.54629 0.82627,-19.80749 3.75345,20.00096 16.98726,0.70562 -8.84986,-96.81811 c 6.30874,-3.80588 6.47275,-11.28824 -1.21548,-14.15796 z" /><g
     id="g14"
     inkscape:export-filename="g14.png"
     inkscape:export-xdpi="96"
     inkscape:export-ydpi="96"
     transform="translate(627.54552,458.59096)"><rect
       style="fill:none;fill-opacity:1;stroke:none;stroke-width:1.041;stroke-dasharray:none;stroke-opacity:1"
       id="rect14"
       width="800"
       height="800"
       x="-153.86934"
       y="1040.8807" /><path
       id="path12-6"
       style="fill:#000000;fill-opacity:1;stroke:none;stroke-width:1.58737;stroke-dasharray:none;stroke-opacity:0.996078"
       d="m 250.87182,1209.3126 -357.03663,134.1212 159.444939,60.4941 4.864449,-21.7644 c 128.545292,-39.3112 258.245262,-40.1015 385.194072,0.4061 l 4.63811,22.5025 160.88972,-61.3623 z m 8.34615,155.337 c -61.04127,-1.0213 -125.26339,7.1998 -193.927079,28.3311 l -26.938964,126.916 c 70.840253,-1.1701 141.679653,0.5623 212.519893,37.1143 48.94469,-27.0632 119.62348,-39.998 213.71974,-37.7127 l -30.53228,-127.5144 c -55.93962,-15.8481 -113.80003,-26.1128 -174.84131,-27.1343 z m 281.19891,11.4589 -11.75965,4.5793 0.76889,70.4648 c -10.19923,3.5464 -8.20511,14.7156 -0.22011,18.8657 l -15.52346,131.4952 12.51301,-0.7442 1.12543,-26.9792 5.11248,27.2429 23.13792,0.961 -12.05416,-131.8735 c 8.59297,-5.1839 8.81637,-15.3755 -1.65558,-19.2842 z" /><path
       style="font-weight:500;font-size:384.182px;font-family:Ubuntu;-inkscape-font-specification:'Ubuntu Medium';fill:#000000;fill-opacity:1;stroke:none;stroke-width:0.395291;stroke-opacity:1"
       d="m 75.498106,1578.5291 q 22.931397,0 35.080464,8.3525 12.30092,8.3526 12.30092,26.1206 0,9.2636 -3.34098,15.9455 -3.18914,6.5302 -9.41553,10.7824 -6.22641,4.1002 -15.186345,6.0746 -8.959948,1.9742 -20.501547,1.9742 h -9.567399 v 37.0546 H 45.732915 v -103.7227 q 6.681982,-1.5186 14.730736,-1.9742 8.200626,-0.6075 15.034455,-0.6075 z m 1.366785,16.5531 q -7.289444,0 -11.997202,0.4557 v 35.8397 h 9.263668 q 13.819566,0 21.260858,-3.7967 7.441325,-3.9483 7.441325,-14.7305 0,-5.1634 -1.97423,-8.6563 -1.974239,-3.4929 -5.467095,-5.467 -3.492845,-1.9742 -8.352474,-2.7337 -4.707758,-0.9112 -10.17485,-0.9112 z m 87.928729,76.843 q 8.50437,0 12.90839,-0.9112 v -20.3498 q -1.51862,-0.4556 -4.40402,-0.911 -2.88542,-0.4557 -6.37827,-0.4557 -3.03726,0 -6.22641,0.4557 -3.03727,0.4554 -5.61894,1.6704 -2.42982,1.2148 -3.94845,3.4929 -1.51862,2.126 -1.51862,5.467 0,6.5301 4.1003,9.1118 4.1003,2.4299 11.08602,2.4299 z m -1.51864,-68.4904 q 9.11182,0 15.33821,2.2779 6.22641,2.278 9.8711,6.3782 3.79659,4.1005 5.31522,10.0231 1.67053,5.7708 1.67053,12.7566 v 48.1405 q -4.25219,0.9113 -12.90839,2.1263 -8.50437,1.3666 -19.28667,1.3666 -7.13758,0 -13.06025,-1.3666 -5.92266,-1.3669 -10.17483,-4.4041 -4.10032,-3.0374 -6.53012,-7.8969 -2.27794,-4.8597 -2.27794,-11.9973 0,-6.8339 2.58167,-11.5416 2.73354,-4.7077 7.28945,-7.5932 4.55588,-3.0373 10.47855,-4.2521 6.07453,-1.3669 12.60466,-1.3669 3.03728,0 6.37826,0.4557 3.34098,0.3038 7.13758,1.2148 v -3.0373 q 0,-3.1891 -0.75932,-6.0744 -0.7593,-2.8855 -2.73355,-5.0115 -1.82234,-2.2779 -5.01147,-3.4928 -3.03727,-1.2149 -7.74504,-1.2149 -6.37826,0 -11.69347,0.911 -5.31521,0.9113 -8.6562,2.1263 l -2.27797,-14.8826 q 3.49287,-1.2149 10.17485,-2.4299 6.68198,-1.2149 14.27514,-1.2149 z m 74.56499,68.1866 q 7.28938,0 10.63039,-1.6705 3.34096,-1.8224 3.34096,-6.0746 0,-3.9482 -3.64466,-6.5301 -3.49287,-2.5817 -11.69347,-5.6188 -5.01154,-1.8224 -9.26366,-3.7967 -4.10032,-2.126 -7.1376,-4.8596 -3.03723,-2.7336 -4.85959,-6.5301 -1.67055,-3.9485 -1.67055,-9.5675 0,-10.934 8.04882,-17.1604 8.0487,-6.3783 21.86825,-6.3783 6.98573,0 13.36399,1.3667 6.37834,1.215 9.56744,2.4299 l -3.34101,14.8826 q -3.03727,-1.3668 -7.74506,-2.4299 -4.70772,-1.2149 -10.93408,-1.2149 -5.61907,0 -9.11182,1.9743 -3.49287,1.8223 -3.49287,5.7708 0,1.9742 0.60747,3.4929 0.75927,1.5186 2.4298,2.8853 1.67047,1.215 4.40397,2.5817 2.7336,1.215 6.68197,2.5816 6.53018,2.4299 11.0861,4.8597 4.55589,2.2779 7.44128,5.3152 3.03732,2.8854 4.40404,6.682 1.36678,3.7966 1.36678,9.1118 0,11.3898 -8.50442,17.3124 -8.3524,5.7709 -23.99433,5.7709 -10.47858,0 -16.85687,-1.8225 -6.37822,-1.6704 -8.95993,-2.7334 l 3.18916,-15.3383 q 4.10033,1.6705 9.71924,3.1891 5.77082,1.5187 13.06026,1.5187 z m 69.40169,0 q 7.2894,0 10.6304,-1.6705 3.341,-1.8224 3.341,-6.0746 0,-3.9482 -3.64476,-6.5301 -3.4928,-2.5817 -11.6934,-5.6188 -5.01161,-1.8224 -9.26373,-3.7967 -4.10027,-2.126 -7.13758,-4.8596 -3.03719,-2.7336 -4.85958,-6.5301 -1.67047,-3.9485 -1.67047,-9.5675 0,-10.934 8.04874,-17.1604 8.04874,-6.3783 21.8683,-6.3783 6.98572,0 13.36398,1.3667 6.37818,1.215 9.56739,2.4299 l -3.34106,14.8826 q -3.03722,-1.3668 -7.74505,-2.4299 -4.7077,-1.2149 -10.93416,-1.2149 -5.61888,0 -9.11181,1.9743 -3.49281,1.8223 -3.49281,5.7708 0,1.9742 0.6075,3.4929 0.75927,1.5186 2.4298,2.8853 1.67054,1.215 4.40404,2.5817 2.73355,1.215 6.682,2.5816 6.53018,2.4299 11.08597,4.8597 4.55584,2.2779 7.44138,5.3152 3.03716,2.8854 4.40404,6.682 1.36671,3.7966 1.36671,9.1118 0,11.3898 -8.50429,17.3124 -8.35247,5.7709 -23.99454,5.7709 -10.4785,0 -16.85671,-1.8225 -6.37831,-1.6704 -8.9599,-2.7334 l 3.18905,-15.3383 q 4.10026,1.6705 9.71929,3.1891 5.77079,1.5187 13.06026,1.5187 z m 45.10344,-26.1205 q 0,-10.4785 3.03735,-18.3754 3.18911,-7.897 8.35245,-13.0604 5.16334,-5.3151 11.84536,-7.8968 6.68197,-2.7335 13.66765,-2.7335 16.40129,0 25.51306,10.1749 9.26362,10.1747 9.26362,30.3727 0,1.5185 -0.15183,3.4927 0,1.8224 -0.15182,3.341 h -52.39289 q 0.75937,9.5674 6.68208,14.8826 6.0744,5.1634 17.46416,5.1634 6.68203,0 12.14906,-1.215 5.61901,-1.2149 8.80811,-2.5815 l 2.42979,15.0345 q -1.51857,0.7592 -4.25213,1.6704 -2.58174,0.7594 -6.07454,1.3669 -3.34096,0.7592 -7.2894,1.2147 -3.9485,0.4557 -8.04879,0.4557 -10.47853,0 -18.22368,-3.0373 -7.74488,-3.189 -12.75648,-8.6562 -5.01153,-5.619 -7.44133,-13.0602 -2.42984,-7.5932 -2.42984,-16.5532 z m 53.3041,-8.2007 q 0,-3.7964 -1.06302,-7.1376 -1.06307,-3.4927 -3.18915,-5.9226 -1.97428,-2.5817 -5.01155,-3.9484 -2.88529,-1.5185 -6.98573,-1.5185 -4.25207,0 -7.44123,1.6704 -3.18911,1.5187 -5.46709,4.1004 -2.12605,2.5816 -3.34096,5.9225 -1.21503,3.3411 -1.67053,6.8338 z m 56.34116,47.5333 h -18.37549 v -79.4246 h 18.37549 z m 1.97424,-102.6596 q 0,5.1633 -3.34095,8.2006 -3.34112,3.0372 -7.89691,3.0372 -4.70783,0 -8.04879,-3.0372 -3.34095,-3.0373 -3.34095,-8.2006 0,-5.3152 3.34095,-8.3525 3.34096,-3.0373 8.04879,-3.0373 4.55579,0 7.89691,3.0373 3.34095,3.0373 3.34095,8.3525 z"
       id="text3-5-6-9"
       aria-label="Passei" /></g></svg>
