<?xml version="1.0" encoding="UTF-8" standalone="no"?>
<svg
   viewBox="0 0 1500 412"
   version="1.1"
   id="svg1"
   sodipodi:docname="icon.svg"
   width="1500"
   height="412"
   inkscape:version="1.3.2 (091e20e, 2023-11-25, custom)"
   xml:space="preserve"
   xmlns:inkscape="http://www.inkscape.org/namespaces/inkscape"
   xmlns:sodipodi="http://sodipodi.sourceforge.net/DTD/sodipodi-0.dtd"
   xmlns="http://www.w3.org/2000/svg"
   xmlns:svg="http://www.w3.org/2000/svg"><defs
     id="defs1" /><sodipodi:namedview
     id="namedview1"
     pagecolor="#ffffff"
     bordercolor="#000000"
     borderopacity="0.25"
     inkscape:showpageshadow="2"
     inkscape:pageopacity="0.0"
     inkscape:pagecheckerboard="0"
     inkscape:deskcolor="#d1d1d1"
     inkscape:zoom="0.46874117"
     inkscape:cx="920.55067"
     inkscape:cy="553.61043"
     inkscape:window-width="1920"
     inkscape:window-height="991"
     inkscape:window-x="-9"
     inkscape:window-y="-9"
     inkscape:window-maximized="1"
     inkscape:current-layer="svg1" /><!--!Font Awesome Free 6.5.2 by @fontawesome - https://fontawesome.com License - https://fontawesome.com/license/free Copyright 2024 Fonticons, Inc.--><g
     id="g3"><path
       style="font-weight:500;font-size:384.182px;font-family:Ubuntu;-inkscape-font-specification:'Ubuntu Medium';fill:#ff3b3f;stroke:#f9e7e8;stroke-width:0.949294;fill-opacity:1;stroke-opacity:1"
       d="m 533.77566,127.51001 q 55.06998,0 84.24612,20.0586 29.54084,20.05859 29.54084,62.72869 0,22.24682 -8.02345,38.2937 -7.65873,15.68217 -22.6115,25.89382 -14.95277,9.84694 -36.47018,14.58807 -21.5174,4.74112 -49.23473,4.74112 h -22.97622 v 88.98723 h -45.95242 v -249.0913 q 16.04688,-3.64702 35.37607,-4.74112 19.6939,-1.45881 36.10547,-1.45881 z m 3.28232,39.75249 q -17.50569,0 -28.81144,1.0941 v 86.06962 h 22.24681 q 33.18786,0 51.05825,-9.11754 17.87038,-9.48224 17.87038,-35.37608 0,-12.39986 -4.74112,-20.78799 -4.74112,-8.38815 -13.12926,-13.12926 -8.38814,-4.74113 -20.05859,-6.56464 -11.30577,-2.18821 -24.43503,-2.18821 z m 211.16195,184.53909 q 20.4233,0 30.99965,-2.18821 v -48.87004 q -3.64702,-1.0941 -10.57635,-2.18821 -6.92934,-1.09411 -15.31747,-1.09411 -7.29404,0 -14.95277,1.09411 -7.29404,1.09411 -13.49398,4.01172 -5.83522,2.91762 -9.48224,8.38814 -3.64702,5.10583 -3.64702,13.12927 0,15.68218 9.84695,21.8821 9.84695,5.83523 26.62323,5.83523 z M 744.57291,187.3211 q 21.88211,0 36.83488,5.47052 14.95278,5.47053 23.70561,15.31747 9.11754,9.84696 12.76456,24.07033 4.01173,13.85866 4.01173,30.63494 v 115.61046 q -10.21165,2.18821 -30.99965,5.10583 -20.42331,3.28231 -46.31713,3.28231 -17.14098,0 -31.36435,-3.28231 -14.22337,-3.28232 -24.43502,-10.57636 -9.84694,-7.29403 -15.68217,-18.96448 -5.47053,-11.67047 -5.47053,-28.81144 0,-16.41158 6.19993,-27.71735 6.56463,-11.30575 17.50569,-18.23508 10.94105,-7.29404 25.16442,-10.21165 14.58807,-3.28231 30.27024,-3.28231 7.29404,0 15.31748,1.0941 8.02343,0.7294 17.14098,2.91761 v -7.29403 q 0,-7.65874 -1.82351,-14.58807 -1.82351,-6.92934 -6.56464,-12.03515 -4.37641,-5.47053 -12.03515,-8.38815 -7.29403,-2.91762 -18.59979,-2.91762 -15.31748,0 -28.08204,2.18822 -12.76456,2.18821 -20.78799,5.10582 l -5.47053,-35.74077 q 8.38814,-2.91762 24.43501,-5.83523 16.04688,-2.91761 34.28197,-2.91761 z m 179.06871,163.75109 q 17.50569,0 25.52913,-4.01172 8.02344,-4.37643 8.02344,-14.58807 0,-9.48225 -8.75284,-15.68218 -8.38814,-6.19993 -28.08204,-13.49396 -12.03516,-4.37643 -22.24681,-9.11754 -9.84694,-5.10583 -17.14098,-11.67047 -7.29403,-6.56462 -11.67045,-15.68217 -4.01173,-9.48225 -4.01173,-22.97621 0,-26.25853 19.3292,-41.2113 19.3292,-15.31747 52.51705,-15.31747 16.77628,0 32.09376,3.28232 15.3175,2.9176 22.97625,5.83522 l -8.02347,35.74078 q -7.29409,-3.28232 -18.5998,-5.83524 -11.30576,-2.91761 -26.25853,-2.91761 -13.49396,0 -21.8821,4.74112 -8.38815,4.37643 -8.38815,13.85867 0,4.74113 1.45881,8.38815 1.82351,3.64701 5.83523,6.92932 4.01172,2.91762 10.57635,6.19994 6.56464,2.91761 16.04688,6.19992 15.68218,5.83523 26.62323,11.67046 10.94108,5.47053 17.87036,12.76457 7.29409,6.92932 10.57639,16.04687 3.2823,9.11754 3.2823,21.88211 0,27.35263 -20.42334,41.57599 -20.05855,13.85867 -57.62284,13.85867 -25.16442,0 -40.48189,-4.37641 -15.31747,-4.01173 -21.51741,-6.56464 l 7.65874,-36.83487 q 9.84695,4.01171 23.34091,7.65873 13.85867,3.64702 31.36435,3.64702 z m 166.66898,0 q 17.5057,0 25.5291,-4.01172 8.0235,-4.37643 8.0235,-14.58807 0,-9.48225 -8.7529,-15.68218 -8.3881,-6.19993 -28.082,-13.49396 -12.0352,-4.37643 -22.2468,-9.11754 -9.847,-5.10583 -17.141,-11.67047 -7.294,-6.56462 -11.6705,-15.68217 -4.0117,-9.48225 -4.0117,-22.97621 0,-26.25853 19.3292,-41.2113 19.3292,-15.31747 52.5171,-15.31747 16.7762,0 32.0937,3.28232 15.3175,2.9176 22.9762,5.83522 l -8.0235,35.74078 q -7.294,-3.28232 -18.5998,-5.83524 -11.3057,-2.91761 -26.2585,-2.91761 -13.4939,0 -21.8821,4.74112 -8.3881,4.37643 -8.3881,13.85867 0,4.74113 1.4589,8.38815 1.8235,3.64701 5.8352,6.92932 4.0117,2.91762 10.5763,6.19994 6.5646,2.91761 16.0469,6.19992 15.6822,5.83523 26.6232,11.67046 10.941,5.47053 17.8704,12.76457 7.294,6.92932 10.5763,16.04687 3.2824,9.11754 3.2824,21.88211 0,27.35263 -20.4233,41.57599 -20.0586,13.85867 -57.623,13.85867 -25.1643,0 -40.4818,-4.37641 -15.3175,-4.01173 -21.5174,-6.56464 l 7.6587,-36.83487 q 9.8469,4.01171 23.341,7.65873 13.8586,3.64702 31.3643,3.64702 z m 108.3167,-62.72871 q 0,-25.16441 7.294,-44.12891 7.6587,-18.96449 20.0586,-31.36435 12.3999,-12.76456 28.4467,-18.9645 16.0469,-6.56462 32.8232,-6.56462 39.3878,0 61.2699,24.43501 22.2468,24.43503 22.2468,72.94035 0,3.64702 -0.3647,8.38815 0,4.37641 -0.3647,8.02343 H 1244.215 q 1.8235,22.97622 16.0469,35.74078 14.588,12.39986 41.9407,12.39986 16.0469,0 29.1761,-2.91762 13.494,-2.91761 21.1528,-6.19993 l 5.8352,36.10548 q -3.647,1.82351 -10.2117,4.01172 -6.1999,1.82351 -14.5881,3.28232 -8.0234,1.8235 -17.5056,2.9176 -9.4823,1.09411 -19.3293,1.09411 -25.1643,0 -43.7641,-7.29403 -18.5998,-7.65874 -30.635,-20.788 -12.0352,-13.49397 -17.8704,-31.36436 -5.8352,-18.23508 -5.8352,-39.75249 z m 128.0103,-19.69389 q 0,-9.11754 -2.5529,-17.14098 -2.5529,-8.38814 -7.6587,-14.22338 -4.7412,-6.19992 -12.0353,-9.48224 -6.9292,-3.64702 -16.7762,-3.64702 -10.2116,0 -17.8703,4.01172 -7.6588,3.64702 -13.1293,9.84695 -5.1058,6.19993 -8.0235,14.22337 -2.9176,8.02344 -4.0117,16.41158 z m 135.3041,114.15165 h -44.129 V 192.06222 h 44.129 z m 4.7411,-246.53839 q 0,12.39986 -8.0235,19.6939 -8.0234,7.29403 -18.9644,7.29403 -11.3058,0 -19.3293,-7.29403 -8.0234,-7.29404 -8.0234,-19.6939 0,-12.76456 8.0234,-20.0586 8.0235,-7.29403 19.3293,-7.29403 10.941,0 18.9644,7.29403 8.0235,7.29404 8.0235,20.0586 z"
       id="text3-5-6"
       aria-label="Passei" /><g
       id="g5"
       transform="translate(2)"><rect
         style="fill:#f9e7e8;fill-opacity:1;stroke:#f9e7e8;stroke-width:2.72242;stroke-dasharray:none;stroke-opacity:1"
         id="rect5-1"
         width="316.5011"
         height="317.23141"
         x="27.481211"
         y="76.899353"
         ry="24.153841"
         rx="26.193747" /><rect
         style="fill:#ff3b3f;fill-opacity:1;stroke:#f9e7e8;stroke-width:2.81005;stroke-dasharray:none;stroke-opacity:1"
         id="rect5-1-7"
         width="303.16711"
         height="303.16711"
         x="33.424618"
         y="84.364502"
         ry="23.082991"
         rx="25.090216" /><rect
         style="fill:#f9e7e8;fill-opacity:1;stroke:#f9e7e8;stroke-width:2.72242;stroke-dasharray:none;stroke-opacity:1"
         id="rect5-1-8-8"
         width="125.61221"
         height="54.947525"
         x="249.91592"
         y="-318.59213"
         ry="27.473766"
         transform="rotate(90)" /><rect
         style="fill:#f9e7e8;fill-opacity:1;stroke:#f9e7e8;stroke-width:2.71785;stroke-dasharray:none;stroke-opacity:1"
         id="rect5-1-8-5"
         width="267.76556"
         height="55.575623"
         x="51.423916"
         y="103.53313"
         ry="20.068905" /><g
         id="g2"
         transform="matrix(1.7833359,0,0,1.7833359,-4.2358003,40.64462)"
         style="fill:#f9e7e8;fill-opacity:1"><path
           style="fill:#f9e7e8;fill-opacity:1;stroke:#f9e7e8;stroke-width:1.52645;stroke-opacity:1"
           id="path2"
           sodipodi:type="arc"
           sodipodi:cx="45.354393"
           sodipodi:cy="94.481415"
           sodipodi:rx="15.136274"
           sodipodi:ry="15.136273"
           sodipodi:start="0"
           sodipodi:end="6.282237"
           sodipodi:open="true"
           sodipodi:arc-type="arc"
           d="M 60.490667,94.481415 A 15.136274,15.136273 0 0 1 45.357981,109.61769 15.136274,15.136273 0 0 1 30.21812,94.488592 15.136274,15.136273 0 0 1 45.343628,79.345145 15.136274,15.136273 0 0 1 60.490661,94.467061" /><path
           style="fill:#f9e7e8;fill-opacity:1;stroke:#f9e7e8;stroke-width:1.52645;stroke-opacity:1"
           id="path2-2"
           sodipodi:type="arc"
           sodipodi:cx="85.092346"
           sodipodi:cy="94.495705"
           sodipodi:rx="15.136274"
           sodipodi:ry="15.136273"
           sodipodi:start="0"
           sodipodi:end="6.282237"
           sodipodi:open="true"
           sodipodi:arc-type="arc"
           d="M 100.22862,94.495705 A 15.136274,15.136273 0 0 1 85.095935,109.63198 15.136274,15.136273 0 0 1 69.956074,94.502882 15.136274,15.136273 0 0 1 85.081581,79.359435 15.136274,15.136273 0 0 1 100.22861,94.481351" /><path
           style="fill:#f9e7e8;fill-opacity:1;stroke:#f9e7e8;stroke-width:1.52645;stroke-opacity:1"
           id="path2-2-5"
           sodipodi:type="arc"
           sodipodi:cx="125.60236"
           sodipodi:cy="94.451653"
           sodipodi:rx="15.136274"
           sodipodi:ry="15.136273"
           sodipodi:start="0"
           sodipodi:end="6.282237"
           sodipodi:open="true"
           sodipodi:arc-type="arc"
           d="M 140.73864,94.451653 A 15.136274,15.136273 0 0 1 125.60595,109.58793 15.136274,15.136273 0 0 1 110.46609,94.458829 15.136274,15.136273 0 0 1 125.5916,79.315383 15.136274,15.136273 0 0 1 140.73863,94.437299" /><path
           style="fill:#f9e7e8;fill-opacity:1;stroke:#f9e7e8;stroke-width:1.52645;stroke-opacity:1"
           id="path2-2-5-7"
           sodipodi:type="arc"
           sodipodi:cx="165.2278"
           sodipodi:cy="94.229477"
           sodipodi:rx="15.136274"
           sodipodi:ry="15.136273"
           sodipodi:start="0"
           sodipodi:end="6.282237"
           sodipodi:open="true"
           sodipodi:arc-type="arc"
           d="m 180.36407,94.229477 a 15.136274,15.136273 0 0 1 -15.13268,15.136273 15.136274,15.136273 0 0 1 -15.13986,-15.129096 15.136274,15.136273 0 0 1 15.1255,-15.143447 15.136274,15.136273 0 0 1 15.14704,15.121916" /></g><path
         style="fill:#f9e7e8;fill-opacity:1;stroke:#f9e7e8;stroke-width:2.72216;stroke-opacity:1"
         id="path2-7"
         sodipodi:type="arc"
         sodipodi:cx="76.754478"
         sodipodi:cy="278.81146"
         sodipodi:rx="26.993063"
         sodipodi:ry="26.993059"
         sodipodi:start="0"
         sodipodi:end="6.282237"
         sodipodi:open="true"
         sodipodi:arc-type="arc"
         d="M 103.74754,278.81146 A 26.993063,26.993059 0 0 1 76.760878,305.80452 26.993063,26.993059 0 0 1 49.761419,278.82426 26.993063,26.993059 0 0 1 76.73528,251.81841 26.993063,26.993059 0 0 1 103.74753,278.78586" /><path
         style="fill:#f9e7e8;fill-opacity:1;stroke:#f9e7e8;stroke-width:2.72216;stroke-opacity:1"
         id="path2-2-4"
         sodipodi:type="arc"
         sodipodi:cx="147.62061"
         sodipodi:cy="278.83694"
         sodipodi:rx="26.993063"
         sodipodi:ry="26.993059"
         sodipodi:start="0"
         sodipodi:end="6.282237"
         sodipodi:open="true"
         sodipodi:arc-type="arc"
         d="M 174.61367,278.83694 A 26.993063,26.993059 0 0 1 147.627,305.83 a 26.993063,26.993059 0 0 1 -26.99945,-26.98026 26.993063,26.993059 0 0 1 26.97386,-27.00585 26.993063,26.993059 0 0 1 27.01225,26.96746" /><path
         style="fill:#f9e7e8;fill-opacity:1;stroke:#f9e7e8;stroke-width:2.72216;stroke-opacity:1"
         id="path2-2-5-0"
         sodipodi:type="arc"
         sodipodi:cx="219.86356"
         sodipodi:cy="278.75842"
         sodipodi:rx="26.993063"
         sodipodi:ry="26.993059"
         sodipodi:start="0"
         sodipodi:end="6.282237"
         sodipodi:open="true"
         sodipodi:arc-type="arc"
         d="m 246.85662,278.75842 a 26.993063,26.993059 0 0 1 -26.98666,26.99306 26.993063,26.993059 0 0 1 -26.99946,-26.98026 26.993063,26.993059 0 0 1 26.97386,-27.00585 26.993063,26.993059 0 0 1 27.01225,26.96746" /><path
         style="fill:#f9e7e8;fill-opacity:1;stroke:#f9e7e8;stroke-width:2.72216;stroke-opacity:1"
         id="path2-2-5-7-5"
         sodipodi:type="arc"
         sodipodi:cx="216.71323"
         sodipodi:cy="345.52509"
         sodipodi:rx="26.993063"
         sodipodi:ry="26.993059"
         sodipodi:start="0"
         sodipodi:end="6.282237"
         sodipodi:open="true"
         sodipodi:arc-type="arc"
         d="m 243.70629,345.52509 a 26.993063,26.993059 0 0 1 -26.98666,26.99305 26.993063,26.993059 0 0 1 -26.99946,-26.98026 26.993063,26.993059 0 0 1 26.97386,-27.00585 26.993063,26.993059 0 0 1 27.01225,26.96746" /><path
         style="fill:#f9e7e8;fill-opacity:1;stroke:#f9e7e8;stroke-width:2.72216;stroke-opacity:1"
         id="path2-4"
         sodipodi:type="arc"
         sodipodi:cx="76.940147"
         sodipodi:cy="346.48874"
         sodipodi:rx="26.993063"
         sodipodi:ry="26.993059"
         sodipodi:start="0"
         sodipodi:end="6.282237"
         sodipodi:open="true"
         sodipodi:arc-type="arc"
         d="M 103.93321,346.48874 A 26.993063,26.993059 0 0 1 76.946547,373.4818 26.993063,26.993059 0 0 1 49.947087,346.50154 26.993063,26.993059 0 0 1 76.920949,319.49569 26.993063,26.993059 0 0 1 103.9332,346.46314" /><path
         style="fill:#f9e7e8;fill-opacity:1;stroke:#f9e7e8;stroke-width:2.72216;stroke-opacity:1"
         id="path2-2-0"
         sodipodi:type="arc"
         sodipodi:cx="147.80627"
         sodipodi:cy="346.51416"
         sodipodi:rx="26.993063"
         sodipodi:ry="26.993059"
         sodipodi:start="0"
         sodipodi:end="6.282237"
         sodipodi:open="true"
         sodipodi:arc-type="arc"
         d="m 174.79934,346.51416 a 26.993063,26.993059 0 0 1 -26.98667,26.99306 26.993063,26.993059 0 0 1 -26.99946,-26.98026 26.993063,26.993059 0 0 1 26.97387,-27.00585 26.993063,26.993059 0 0 1 27.01225,26.96745" /><text
         xml:space="preserve"
         style="font-size:53.3333px;fill:#ff3b3f;fill-opacity:1;stroke:none;stroke-width:1;stroke-dasharray:none;stroke-opacity:1"
         x="101.59608"
         y="149.87317"
         id="text3-5-6-3"><tspan
           sodipodi:role="line"
           id="tspan2-5-8-8"
           x="101.59608"
           y="149.87317"
           style="font-style:normal;font-variant:normal;font-weight:500;font-stretch:normal;font-size:53.3333px;font-family:Ubuntu;-inkscape-font-specification:'Ubuntu Medium';fill:#ff3b3f;fill-opacity:1;stroke:none;stroke-width:1;stroke-dasharray:none;stroke-opacity:1">Passei</tspan></text><g
         id="g1"
         transform="matrix(1.5631955,0,0,1.5631955,286.17521,37.519349)"><path
           id="rect2"
           style="fill:#4d4d4d;fill-opacity:1;stroke:#f9e7e8;stroke-width:1.03045;stroke-dasharray:none;stroke-opacity:1"
           d="m -39.401047,14.028074 h 71.048692 v 27.751445 c -30.0115332,17.090036 -44.423199,16.7752 -71.048692,0 z"
           sodipodi:nodetypes="ccccc" /><rect
           style="fill:#4d4d4d;fill-opacity:1;stroke:#f9e7e8;stroke-width:1.26929;stroke-dasharray:none;stroke-opacity:1"
           id="rect3"
           width="67.870682"
           height="66.993416"
           x="-24.055939"
           y="-49.301777"
           transform="matrix(0.93796192,0.34673828,0.93394824,-0.3574083,0,0)" /><path
           style="fill:#f9e7e8;fill-opacity:1;stroke:none;stroke-width:1.50828;stroke-dasharray:none;stroke-opacity:1"
           d="M -6.4045947,5.2284902 -37.797443,18.318466 -38.15488,43.251545 c -2.555772,3.400345 -0.514514,5.707107 1.334451,7.323038 2.285496,-1.631647 3.986415,-3.710792 1.927009,-7.021039 L -34.546428,20.567852 -3.9897554,7.4101526 Z"
           id="path3"
           sodipodi:nodetypes="cccccccc" /><text
           xml:space="preserve"
           style="font-size:18.8285px;line-height:0;font-family:Po;-inkscape-font-specification:Po;text-decoration-color:#000000;letter-spacing:0px;word-spacing:0px;fill:#f9e7e8;fill-opacity:1;stroke:none;stroke-width:0.44121;stroke-dasharray:none;stroke-opacity:1"
           x="-10.048499"
           y="50.253029"
           id="text5"><tspan
             sodipodi:role="line"
             id="tspan5"
             style="font-style:normal;font-variant:normal;font-weight:bold;font-stretch:normal;font-family:Poppins;-inkscape-font-specification:'Poppins Bold';fill:#f9e7e8;fill-opacity:1;stroke-width:0.44121"
             x="-10.048499"
             y="50.253029">P</tspan></text></g></g></g></svg>
