<?xml version="1.0" encoding="UTF-8" standalone="no"?>
<svg
   viewBox="0 0 1600 412"
   version="1.1"
   id="svg1"
   sodipodi:docname="icon.svg"
   width="1600"
   height="412"
   inkscape:version="1.3.2 (091e20e, 2023-11-25, custom)"
   xml:space="preserve"
   xmlns:inkscape="http://www.inkscape.org/namespaces/inkscape"
   xmlns:sodipodi="http://sodipodi.sourceforge.net/DTD/sodipodi-0.dtd"
   xmlns="http://www.w3.org/2000/svg"
   xmlns:svg="http://www.w3.org/2000/svg"><defs
     id="defs1" /><sodipodi:namedview
     id="namedview1"
     pagecolor="#ffffff"
     bordercolor="#000000"
     borderopacity="0.25"
     inkscape:showpageshadow="2"
     inkscape:pageopacity="0.0"
     inkscape:pagecheckerboard="0"
     inkscape:deskcolor="#d1d1d1"
     inkscape:zoom="0.40750018"
     inkscape:cx="506.74824"
     inkscape:cy="333.74218"
     inkscape:window-width="1722"
     inkscape:window-height="1020"
     inkscape:window-x="48"
     inkscape:window-y="0"
     inkscape:window-maximized="0"
     inkscape:current-layer="svg1" /><!--!Font Awesome Free 6.5.2 by @fontawesome - https://fontawesome.com License - https://fontawesome.com/license/free Copyright 2024 Fonticons, Inc.--><g
     id="g4"><path
       style="font-weight:500;font-size:362.811px;font-family:Ubuntu;-inkscape-font-specification:'Ubuntu Medium';fill:#f9f9f9;stroke-width:16.0694"
       d="m 502.22201,111.80717 q 54.78446,0 83.80934,19.9546 29.3877,19.95461 29.3877,62.4035 0,22.13147 -7.98185,38.09515 -7.61903,15.60088 -22.49428,25.75958 -14.87525,9.7959 -36.2811,14.51244 -21.40585,4.71655 -48.97949,4.71655 h -22.85709 v 88.52588 H 431.11106 V 117.97496 q 15.96368,-3.62811 35.19266,-4.71655 19.5918,-1.45124 35.91829,-1.45124 z m 3.2653,39.5464 q -17.41493,0 -28.66207,1.08843 v 85.6234 h 22.13147 q 33.0158,0 50.79354,-9.07028 17.77774,-9.43308 17.77774,-35.19266 0,-12.33558 -4.71654,-20.68023 -4.71654,-8.34465 -13.0612,-13.0612 -8.34465,-4.71654 -19.9546,-6.5306 -11.24714,-2.17686 -24.30834,-2.17686 z m 302.22124,214.4213 q -5.07935,-14.87525 -10.52151,-29.38769 -5.44217,-14.51244 -10.52152,-29.7505 H 680.7247 q -5.07935,15.23806 -10.52152,30.11331 -5.07935,14.51244 -10.1587,29.02488 h -47.52825 q 14.14963,-40.27202 26.84802,-74.37625 12.69838,-34.10424 24.67115,-64.58036 12.33557,-30.47613 24.30833,-58.04976 11.97277,-27.57364 24.67115,-54.42165 h 43.17451 q 12.69839,26.84801 24.67115,54.42165 11.97276,27.57363 23.94553,58.04976 12.33557,30.47612 25.03396,64.58036 13.06119,34.10423 27.21082,74.37625 z M 733.69511,162.96352 q -8.34465,19.22898 -19.22898,46.80262 -10.52152,27.57364 -22.13148,59.86382 h 82.72091 q -11.60995,-32.29018 -22.49428,-60.22663 -10.88433,-27.93645 -18.86617,-46.43981 z m 221.3147,168.70712 q 24.67114,0 35.91829,-8.34466 11.2471,-8.34465 11.2471,-23.58271 0,-9.07028 -3.99088,-15.60087 -3.62811,-6.5306 -10.88433,-11.60996 -6.89341,-5.44216 -17.05212,-9.79589 -10.15871,-4.71655 -23.21991,-9.07028 -13.06119,-4.71654 -25.39677,-10.15871 -11.97276,-5.80497 -21.40585,-14.14963 -9.07027,-8.34465 -14.87525,-19.9546 -5.44216,-11.60995 -5.44216,-27.93645 0,-34.10423 23.58271,-53.33322 23.58272,-19.59179 64.21755,-19.59179 23.58272,0 41.72331,5.44216 18.5033,5.07936 29.0248,11.24715 l -14.1496,37.00672 q -12.3356,-6.89341 -27.21082,-10.52152 -14.51244,-3.62811 -30.11331,-3.62811 -18.50336,0 -29.02488,7.61903 -10.15871,7.61903 -10.15871,21.40585 0,8.34465 3.2653,14.51244 3.62811,5.80498 9.7959,10.52152 6.5306,4.71654 14.87525,8.70746 8.70746,3.99092 18.86617,7.61903 17.77774,6.5306 31.5646,13.42401 14.1496,6.5306 23.5827,15.96369 9.7959,9.07027 14.8752,21.76866 5.0794,12.33557 5.0794,30.11331 0,34.10423 -24.3084,52.97041 -23.9455,18.50336 -70.38529,18.50336 -15.60088,0 -28.66207,-2.17687 -12.69839,-1.81405 -22.8571,-4.71654 -9.79589,-2.90249 -17.05211,-5.80498 -7.25622,-3.2653 -11.60996,-5.80497 l 13.42401,-37.36954 q 9.7959,5.44217 26.48521,10.88433 16.6893,5.44217 40.27202,5.44217 z m 195.91819,0 q 24.6712,0 35.9183,-8.34466 11.2472,-8.34465 11.2472,-23.58271 0,-9.07028 -3.9909,-15.60087 -3.6282,-6.5306 -10.8844,-11.60996 -6.8934,-5.44216 -17.0521,-9.79589 -10.1587,-4.71655 -23.2199,-9.07028 -13.0612,-4.71654 -25.3968,-10.15871 -11.9727,-5.80497 -21.4058,-14.14963 -9.0703,-8.34465 -14.8753,-19.9546 -5.4421,-11.60995 -5.4421,-27.93645 0,-34.10423 23.5827,-53.33322 23.5827,-19.59179 64.2175,-19.59179 23.5828,0 41.7233,5.44216 18.5034,5.07936 29.0249,11.24715 l -14.1496,37.00672 q -12.3356,-6.89341 -27.2109,-10.52152 -14.5124,-3.62811 -30.1133,-3.62811 -18.5033,0 -29.0249,7.61903 -10.1587,7.61903 -10.1587,21.40585 0,8.34465 3.2653,14.51244 3.6281,5.80498 9.7959,10.52152 6.5306,4.71654 14.8753,8.70746 8.7074,3.99092 18.8661,7.61903 17.7778,6.5306 31.5646,13.42401 14.1496,6.5306 23.5827,15.96369 9.7959,9.07027 14.8753,21.76866 5.0793,12.33557 5.0793,30.11331 0,34.10423 -24.3083,52.97041 -23.9455,18.50336 -70.3854,18.50336 -15.6008,0 -28.662,-2.17687 -12.6984,-1.81405 -22.8571,-4.71654 -9.7959,-2.90249 -17.0521,-5.80498 -7.2563,-3.2653 -11.61,-5.80497 l 13.424,-37.36954 q 9.7959,5.44217 26.4852,10.88433 16.6893,5.44217 40.272,5.44217 z m 134.9661,34.10423 V 114.34685 h 161.4509 v 38.82077 h -115.7367 v 62.04068 h 103.0383 v 38.09516 h -103.0383 v 73.65063 h 124.4442 v 38.82078 z m 212.6075,-251.42802 h 45.7141 v 251.42802 h -45.7141 z"
       id="text3"
       aria-label="PASSEI" /><g
       id="g3"><rect
         style="fill:#f9e7e8;fill-opacity:1;stroke:#f9e7e8;stroke-width:2.72242;stroke-dasharray:none;stroke-opacity:1"
         id="rect5-1"
         width="316.5011"
         height="317.23141"
         x="27.481211"
         y="76.899353"
         ry="24.153841"
         rx="26.193747" /><rect
         style="fill:#ff3b3f;fill-opacity:1;stroke:#f9e7e8;stroke-width:2.81005;stroke-dasharray:none;stroke-opacity:1"
         id="rect5-1-7"
         width="303.16711"
         height="303.16711"
         x="33.424618"
         y="84.364502"
         ry="23.082991"
         rx="25.090216" /><rect
         style="fill:#f9e7e8;fill-opacity:1;stroke:#f9e7e8;stroke-width:2.72242;stroke-dasharray:none;stroke-opacity:1"
         id="rect5-1-8-8"
         width="125.61221"
         height="54.947525"
         x="249.91592"
         y="-318.59213"
         ry="27.473766"
         transform="rotate(90)" /><rect
         style="fill:#f9e7e8;fill-opacity:1;stroke:#f9e7e8;stroke-width:2.71785;stroke-dasharray:none;stroke-opacity:1"
         id="rect5-1-8-5"
         width="267.76556"
         height="55.575623"
         x="51.423916"
         y="103.53313"
         ry="20.068905" /><g
         id="g2"
         transform="matrix(1.7833359,0,0,1.7833359,-4.2358003,40.64462)"
         style="fill:#f9e7e8;fill-opacity:1"><path
           style="fill:#f9e7e8;fill-opacity:1;stroke:#f9e7e8;stroke-width:1.52645;stroke-opacity:1"
           id="path2"
           sodipodi:type="arc"
           sodipodi:cx="45.354393"
           sodipodi:cy="94.481415"
           sodipodi:rx="15.136274"
           sodipodi:ry="15.136273"
           sodipodi:start="0"
           sodipodi:end="6.282237"
           sodipodi:open="true"
           sodipodi:arc-type="arc"
           d="M 60.490667,94.481415 A 15.136274,15.136273 0 0 1 45.357981,109.61769 15.136274,15.136273 0 0 1 30.21812,94.488592 15.136274,15.136273 0 0 1 45.343628,79.345145 15.136274,15.136273 0 0 1 60.490661,94.467061" /><path
           style="fill:#f9e7e8;fill-opacity:1;stroke:#f9e7e8;stroke-width:1.52645;stroke-opacity:1"
           id="path2-2"
           sodipodi:type="arc"
           sodipodi:cx="85.092346"
           sodipodi:cy="94.495705"
           sodipodi:rx="15.136274"
           sodipodi:ry="15.136273"
           sodipodi:start="0"
           sodipodi:end="6.282237"
           sodipodi:open="true"
           sodipodi:arc-type="arc"
           d="M 100.22862,94.495705 A 15.136274,15.136273 0 0 1 85.095935,109.63198 15.136274,15.136273 0 0 1 69.956074,94.502882 15.136274,15.136273 0 0 1 85.081581,79.359435 15.136274,15.136273 0 0 1 100.22861,94.481351" /><path
           style="fill:#f9e7e8;fill-opacity:1;stroke:#f9e7e8;stroke-width:1.52645;stroke-opacity:1"
           id="path2-2-5"
           sodipodi:type="arc"
           sodipodi:cx="125.60236"
           sodipodi:cy="94.451653"
           sodipodi:rx="15.136274"
           sodipodi:ry="15.136273"
           sodipodi:start="0"
           sodipodi:end="6.282237"
           sodipodi:open="true"
           sodipodi:arc-type="arc"
           d="M 140.73864,94.451653 A 15.136274,15.136273 0 0 1 125.60595,109.58793 15.136274,15.136273 0 0 1 110.46609,94.458829 15.136274,15.136273 0 0 1 125.5916,79.315383 15.136274,15.136273 0 0 1 140.73863,94.437299" /><path
           style="fill:#f9e7e8;fill-opacity:1;stroke:#f9e7e8;stroke-width:1.52645;stroke-opacity:1"
           id="path2-2-5-7"
           sodipodi:type="arc"
           sodipodi:cx="165.2278"
           sodipodi:cy="94.229477"
           sodipodi:rx="15.136274"
           sodipodi:ry="15.136273"
           sodipodi:start="0"
           sodipodi:end="6.282237"
           sodipodi:open="true"
           sodipodi:arc-type="arc"
           d="m 180.36407,94.229477 a 15.136274,15.136273 0 0 1 -15.13268,15.136273 15.136274,15.136273 0 0 1 -15.13986,-15.129096 15.136274,15.136273 0 0 1 15.1255,-15.143447 15.136274,15.136273 0 0 1 15.14704,15.121916" /></g><path
         style="fill:#f9e7e8;fill-opacity:1;stroke:#f9e7e8;stroke-width:2.72216;stroke-opacity:1"
         id="path2-7"
         sodipodi:type="arc"
         sodipodi:cx="76.754478"
         sodipodi:cy="278.81146"
         sodipodi:rx="26.993063"
         sodipodi:ry="26.993059"
         sodipodi:start="0"
         sodipodi:end="6.282237"
         sodipodi:open="true"
         sodipodi:arc-type="arc"
         d="M 103.74754,278.81146 A 26.993063,26.993059 0 0 1 76.760878,305.80452 26.993063,26.993059 0 0 1 49.761419,278.82426 26.993063,26.993059 0 0 1 76.73528,251.81841 26.993063,26.993059 0 0 1 103.74753,278.78586" /><path
         style="fill:#f9e7e8;fill-opacity:1;stroke:#f9e7e8;stroke-width:2.72216;stroke-opacity:1"
         id="path2-2-4"
         sodipodi:type="arc"
         sodipodi:cx="147.62061"
         sodipodi:cy="278.83694"
         sodipodi:rx="26.993063"
         sodipodi:ry="26.993059"
         sodipodi:start="0"
         sodipodi:end="6.282237"
         sodipodi:open="true"
         sodipodi:arc-type="arc"
         d="M 174.61367,278.83694 A 26.993063,26.993059 0 0 1 147.627,305.83 a 26.993063,26.993059 0 0 1 -26.99945,-26.98026 26.993063,26.993059 0 0 1 26.97386,-27.00585 26.993063,26.993059 0 0 1 27.01225,26.96746" /><path
         style="fill:#f9e7e8;fill-opacity:1;stroke:#f9e7e8;stroke-width:2.72216;stroke-opacity:1"
         id="path2-2-5-0"
         sodipodi:type="arc"
         sodipodi:cx="219.86356"
         sodipodi:cy="278.75842"
         sodipodi:rx="26.993063"
         sodipodi:ry="26.993059"
         sodipodi:start="0"
         sodipodi:end="6.282237"
         sodipodi:open="true"
         sodipodi:arc-type="arc"
         d="m 246.85662,278.75842 a 26.993063,26.993059 0 0 1 -26.98666,26.99306 26.993063,26.993059 0 0 1 -26.99946,-26.98026 26.993063,26.993059 0 0 1 26.97386,-27.00585 26.993063,26.993059 0 0 1 27.01225,26.96746" /><path
         style="fill:#f9e7e8;fill-opacity:1;stroke:#f9e7e8;stroke-width:2.72216;stroke-opacity:1"
         id="path2-2-5-7-5"
         sodipodi:type="arc"
         sodipodi:cx="216.71323"
         sodipodi:cy="345.52509"
         sodipodi:rx="26.993063"
         sodipodi:ry="26.993059"
         sodipodi:start="0"
         sodipodi:end="6.282237"
         sodipodi:open="true"
         sodipodi:arc-type="arc"
         d="m 243.70629,345.52509 a 26.993063,26.993059 0 0 1 -26.98666,26.99305 26.993063,26.993059 0 0 1 -26.99946,-26.98026 26.993063,26.993059 0 0 1 26.97386,-27.00585 26.993063,26.993059 0 0 1 27.01225,26.96746" /><path
         style="fill:#f9e7e8;fill-opacity:1;stroke:#f9e7e8;stroke-width:2.72216;stroke-opacity:1"
         id="path2-4"
         sodipodi:type="arc"
         sodipodi:cx="76.940147"
         sodipodi:cy="346.48874"
         sodipodi:rx="26.993063"
         sodipodi:ry="26.993059"
         sodipodi:start="0"
         sodipodi:end="6.282237"
         sodipodi:open="true"
         sodipodi:arc-type="arc"
         d="M 103.93321,346.48874 A 26.993063,26.993059 0 0 1 76.946547,373.4818 26.993063,26.993059 0 0 1 49.947087,346.50154 26.993063,26.993059 0 0 1 76.920949,319.49569 26.993063,26.993059 0 0 1 103.9332,346.46314" /><path
         style="fill:#f9e7e8;fill-opacity:1;stroke:#f9e7e8;stroke-width:2.72216;stroke-opacity:1"
         id="path2-2-0"
         sodipodi:type="arc"
         sodipodi:cx="147.80627"
         sodipodi:cy="346.51416"
         sodipodi:rx="26.993063"
         sodipodi:ry="26.993059"
         sodipodi:start="0"
         sodipodi:end="6.282237"
         sodipodi:open="true"
         sodipodi:arc-type="arc"
         d="m 174.79934,346.51416 a 26.993063,26.993059 0 0 1 -26.98667,26.99306 26.993063,26.993059 0 0 1 -26.99946,-26.98026 26.993063,26.993059 0 0 1 26.97387,-27.00585 26.993063,26.993059 0 0 1 27.01225,26.96745" /><text
         xml:space="preserve"
         style="font-size:50.6667px;fill:#ff3c3f;fill-opacity:0.788235;stroke:none;stroke-width:3.77953"
         x="100.01024"
         y="148.06023"
         id="text3-5"><tspan
           sodipodi:role="line"
           id="tspan2-5"
           x="100.01024"
           y="148.06023"
           style="font-style:normal;font-variant:normal;font-weight:500;font-stretch:normal;font-size:50.6667px;font-family:Ubuntu;-inkscape-font-specification:'Ubuntu Medium';fill:#ff3c3f;fill-opacity:0.788235">PASSEI</tspan></text></g><g
       id="g1"
       transform="matrix(1.5631955,0,0,1.5631955,286.17521,37.519349)"><path
         id="rect2"
         style="fill:#4d4d4d;fill-opacity:1;stroke:#f9e7e8;stroke-width:1.03045;stroke-dasharray:none;stroke-opacity:1"
         d="m -39.401047,14.028074 h 71.048692 v 27.751445 c -30.0115332,17.090036 -44.423199,16.7752 -71.048692,0 z"
         sodipodi:nodetypes="ccccc" /><rect
         style="fill:#4d4d4d;fill-opacity:1;stroke:#f9e7e8;stroke-width:1.26929;stroke-dasharray:none;stroke-opacity:1"
         id="rect3"
         width="67.870682"
         height="66.993416"
         x="-24.055939"
         y="-49.301777"
         transform="matrix(0.93796192,0.34673828,0.93394824,-0.3574083,0,0)" /><path
         style="fill:#f9e7e8;fill-opacity:1;stroke:none;stroke-width:1.50828;stroke-dasharray:none;stroke-opacity:1"
         d="M -6.4045947,5.2284902 -37.797443,18.318466 -38.15488,43.251545 c -2.555772,3.400345 -0.514514,5.707107 1.334451,7.323038 2.285496,-1.631647 3.986415,-3.710792 1.927009,-7.021039 L -34.546428,20.567852 -3.9897554,7.4101526 Z"
         id="path3"
         sodipodi:nodetypes="cccccccc" /><text
         xml:space="preserve"
         style="font-size:18.8285px;line-height:0;font-family:Po;-inkscape-font-specification:Po;text-decoration-color:#000000;letter-spacing:0px;word-spacing:0px;fill:#f9e7e8;fill-opacity:1;stroke:none;stroke-width:0.44121;stroke-dasharray:none;stroke-opacity:1"
         x="-10.048499"
         y="50.253029"
         id="text5"><tspan
           sodipodi:role="line"
           id="tspan5"
           style="font-style:normal;font-variant:normal;font-weight:bold;font-stretch:normal;font-family:Poppins;-inkscape-font-specification:'Poppins Bold';fill:#f9e7e8;fill-opacity:1;stroke-width:0.44121"
           x="-10.048499"
           y="50.253029">P</tspan></text></g></g></svg>
